<?xml version="1.0" encoding="UTF-8" standalone="no"?>
<!DOCTYPE svg PUBLIC "-//W3C//DTD SVG 1.1//EN"
 "http://www.w3.org/Graphics/SVG/1.1/DTD/svg11.dtd">
<!-- Generated by graphviz version 2.38.0 (20140413.2041)
 -->
<!-- Title: D:/Git/DataStructures/LinkedList/List.hpp Pages: 1 -->
<svg width="202pt" height="95pt"
 viewBox="0.00 0.00 202.00 95.00" xmlns="http://www.w3.org/2000/svg" xmlns:xlink="http://www.w3.org/1999/xlink">
<g id="graph0" class="graph" transform="scale(1 1) rotate(0) translate(4 91)">
<title>D:/Git/DataStructures/LinkedList/List.hpp</title>
<polygon fill="white" stroke="none" points="-4,4 -4,-91 198,-91 198,4 -4,4"/>
<!-- Node0 -->
<g id="node1" class="node"><title>Node0</title>
<polygon fill="#bfbfbf" stroke="black" points="40,-56.5 40,-86.5 150,-86.5 150,-56.5 40,-56.5"/>
<text text-anchor="start" x="48" y="-74.5" font-family="Helvetica,sans-Serif" font-size="10.00">D:/Git/DataStructures</text>
<text text-anchor="middle" x="95" y="-63.5" font-family="Helvetica,sans-Serif" font-size="10.00">/LinkedList/List.hpp</text>
</g>
<!-- Node1 -->
<g id="node2" class="node"><title>Node1</title>
<polygon fill="white" stroke="#bfbfbf" points="0,-0.5 0,-19.5 54,-19.5 54,-0.5 0,-0.5"/>
<text text-anchor="middle" x="27" y="-7.5" font-family="Helvetica,sans-Serif" font-size="10.00">iostream</text>
</g>
<!-- Node0&#45;&gt;Node1 -->
<g id="edge1" class="edge"><title>Node0&#45;&gt;Node1</title>
<path fill="none" stroke="midnightblue" d="M78.8849,-56.3993C68.5963,-47.3967 55.253,-35.7214 44.6745,-26.4652"/>
<polygon fill="midnightblue" stroke="midnightblue" points="46.7252,-23.6088 36.8946,-19.6578 42.1156,-28.8769 46.7252,-23.6088"/>
</g>
<!-- Node2 -->
<g id="node3" class="node"><title>Node2</title>
<polygon fill="white" stroke="#bfbfbf" points="72.5,-0.5 72.5,-19.5 117.5,-19.5 117.5,-0.5 72.5,-0.5"/>
<text text-anchor="middle" x="95" y="-7.5" font-family="Helvetica,sans-Serif" font-size="10.00">climits</text>
</g>
<!-- Node0&#45;&gt;Node2 -->
<g id="edge2" class="edge"><title>Node0&#45;&gt;Node2</title>
<path fill="none" stroke="midnightblue" d="M95,-56.3993C95,-48.4664 95,-38.458 95,-29.8583"/>
<polygon fill="midnightblue" stroke="midnightblue" points="98.5001,-29.6577 95,-19.6578 91.5001,-29.6578 98.5001,-29.6577"/>
</g>
<!-- Node3 -->
<g id="node4" class="node"><title>Node3</title>
<g id="a_node4"><a xlink:href="_node_8hpp.html" target="_top" xlink:title="Node.hpp">
<polygon fill="white" stroke="black" points="136,-0.5 136,-19.5 194,-19.5 194,-0.5 136,-0.5"/>
<text text-anchor="middle" x="165" y="-7.5" font-family="Helvetica,sans-Serif" font-size="10.00">Node.hpp</text>
</a>
</g>
</g>
<!-- Node0&#45;&gt;Node3 -->
<g id="edge3" class="edge"><title>Node0&#45;&gt;Node3</title>
<path fill="none" stroke="midnightblue" d="M111.589,-56.3993C122.285,-47.3076 136.188,-35.4899 147.128,-26.1909"/>
<polygon fill="midnightblue" stroke="midnightblue" points="149.462,-28.8011 154.814,-19.6578 144.928,-23.4675 149.462,-28.8011"/>
</g>
</g>
</svg>
