<?xml version="1.0" encoding="UTF-8" standalone="no"?>
<!DOCTYPE svg PUBLIC "-//W3C//DTD SVG 1.1//EN"
 "http://www.w3.org/Graphics/SVG/1.1/DTD/svg11.dtd">
<!-- Generated by graphviz version 2.38.0 (20140413.2041)
 -->
<!-- Title: D:/Git/DataStructures/LinkedList/Node.hpp Pages: 1 -->
<svg width="246pt" height="173pt"
 viewBox="0.00 0.00 246.00 173.00" xmlns="http://www.w3.org/2000/svg" xmlns:xlink="http://www.w3.org/1999/xlink">
<g id="graph0" class="graph" transform="scale(1 1) rotate(0) translate(4 169)">
<title>D:/Git/DataStructures/LinkedList/Node.hpp</title>
<polygon fill="white" stroke="none" points="-4,4 -4,-169 242,-169 242,4 -4,4"/>
<!-- Node1 -->
<g id="node1" class="node"><title>Node1</title>
<polygon fill="#bfbfbf" stroke="black" points="64,-134.5 64,-164.5 174,-164.5 174,-134.5 64,-134.5"/>
<text text-anchor="start" x="72" y="-152.5" font-family="Helvetica,sans-Serif" font-size="10.00">D:/Git/DataStructures</text>
<text text-anchor="middle" x="119" y="-141.5" font-family="Helvetica,sans-Serif" font-size="10.00">/LinkedList/Node.hpp</text>
</g>
<!-- Node2 -->
<g id="node2" class="node"><title>Node2</title>
<g id="a_node2"><a xlink:href="_list_8hpp.html" target="_top" xlink:title="D:/Git/DataStructures\l/LinkedList/List.hpp">
<polygon fill="white" stroke="black" points="64,-67.5 64,-97.5 174,-97.5 174,-67.5 64,-67.5"/>
<text text-anchor="start" x="72" y="-85.5" font-family="Helvetica,sans-Serif" font-size="10.00">D:/Git/DataStructures</text>
<text text-anchor="middle" x="119" y="-74.5" font-family="Helvetica,sans-Serif" font-size="10.00">/LinkedList/List.hpp</text>
</a>
</g>
</g>
<!-- Node1&#45;&gt;Node2 -->
<g id="edge1" class="edge"><title>Node1&#45;&gt;Node2</title>
<path fill="none" stroke="midnightblue" d="M119,-124.108C119,-115.154 119,-105.323 119,-97.5765"/>
<polygon fill="midnightblue" stroke="midnightblue" points="115.5,-124.396 119,-134.396 122.5,-124.396 115.5,-124.396"/>
</g>
<!-- Node3 -->
<g id="node3" class="node"><title>Node3</title>
<g id="a_node3"><a xlink:href="_list_8cpp.html" target="_top" xlink:title="D:/Git/DataStructures\l/LinkedList/List.cpp">
<polygon fill="white" stroke="black" points="0,-0.5 0,-30.5 110,-30.5 110,-0.5 0,-0.5"/>
<text text-anchor="start" x="8" y="-18.5" font-family="Helvetica,sans-Serif" font-size="10.00">D:/Git/DataStructures</text>
<text text-anchor="middle" x="55" y="-7.5" font-family="Helvetica,sans-Serif" font-size="10.00">/LinkedList/List.cpp</text>
</a>
</g>
</g>
<!-- Node2&#45;&gt;Node3 -->
<g id="edge2" class="edge"><title>Node2&#45;&gt;Node3</title>
<path fill="none" stroke="midnightblue" d="M97.8546,-60.0243C88.3192,-50.3398 77.3251,-39.1739 68.8599,-30.5765"/>
<polygon fill="midnightblue" stroke="midnightblue" points="95.6029,-62.7259 105.113,-67.396 100.591,-57.8146 95.6029,-62.7259"/>
</g>
<!-- Node4 -->
<g id="node4" class="node"><title>Node4</title>
<g id="a_node4"><a xlink:href="main_8cpp.html" target="_top" xlink:title="D:/Git/DataStructures\l/LinkedList/main.cpp">
<polygon fill="white" stroke="black" points="128,-0.5 128,-30.5 238,-30.5 238,-0.5 128,-0.5"/>
<text text-anchor="start" x="136" y="-18.5" font-family="Helvetica,sans-Serif" font-size="10.00">D:/Git/DataStructures</text>
<text text-anchor="middle" x="183" y="-7.5" font-family="Helvetica,sans-Serif" font-size="10.00">/LinkedList/main.cpp</text>
</a>
</g>
</g>
<!-- Node2&#45;&gt;Node4 -->
<g id="edge3" class="edge"><title>Node2&#45;&gt;Node4</title>
<path fill="none" stroke="midnightblue" d="M140.145,-60.0243C149.681,-50.3398 160.675,-39.1739 169.14,-30.5765"/>
<polygon fill="midnightblue" stroke="midnightblue" points="137.409,-57.8146 132.887,-67.396 142.397,-62.7259 137.409,-57.8146"/>
</g>
</g>
</svg>
