<?xml version="1.0" encoding="UTF-8" standalone="no"?>
<!DOCTYPE svg PUBLIC "-//W3C//DTD SVG 1.1//EN"
 "http://www.w3.org/Graphics/SVG/1.1/DTD/svg11.dtd">
<!-- Generated by graphviz version 2.38.0 (20140413.2041)
 -->
<!-- Title: Node::setNext Pages: 1 -->
<svg width="474pt" height="360pt"
 viewBox="0.00 0.00 474.00 359.67" xmlns="http://www.w3.org/2000/svg" xmlns:xlink="http://www.w3.org/1999/xlink">
<g id="graph0" class="graph" transform="scale(1 1) rotate(0) translate(4 355.666)">
<title>Node::setNext</title>
<polygon fill="white" stroke="none" points="-4,4 -4,-355.666 470,-355.666 470,4 -4,4"/>
<!-- Node47 -->
<g id="node1" class="node"><title>Node47</title>
<polygon fill="#bfbfbf" stroke="black" points="0,-161.166 0,-180.166 79,-180.166 79,-161.166 0,-161.166"/>
<text text-anchor="middle" x="39.5" y="-168.166" font-family="Helvetica,sans-Serif" font-size="10.00">Node::setNext</text>
</g>
<!-- Node48 -->
<g id="node2" class="node"><title>Node48</title>
<g id="a_node2"><a xlink:href="class_linked_list.html#af508f8b52bbcf1485a1552ac8fc84b81" target="_top" xlink:title="LinkedList::insertAfter">
<polygon fill="white" stroke="black" points="275.5,-332.166 275.5,-351.166 386.5,-351.166 386.5,-332.166 275.5,-332.166"/>
<text text-anchor="middle" x="331" y="-339.166" font-family="Helvetica,sans-Serif" font-size="10.00">LinkedList::insertAfter</text>
</a>
</g>
</g>
<!-- Node47&#45;&gt;Node48 -->
<g id="edge1" class="edge"><title>Node47&#45;&gt;Node48</title>
<path fill="none" stroke="midnightblue" d="M45.6949,-190.098C54.6274,-219.499 75.8289,-274.807 115,-302.666 161.835,-335.975 228.535,-343.518 275.184,-344.126"/>
<polygon fill="midnightblue" stroke="midnightblue" points="48.9804,-188.858 42.8602,-180.209 42.2514,-190.787 48.9804,-188.858"/>
</g>
<!-- Node50 -->
<g id="node4" class="node"><title>Node50</title>
<g id="a_node4"><a xlink:href="class_linked_list.html#a895ad950cc619c9cf72273e5e59a100f" target="_top" xlink:title="LinkedList::insertBefore">
<polygon fill="white" stroke="black" points="271.5,-294.166 271.5,-313.166 390.5,-313.166 390.5,-294.166 271.5,-294.166"/>
<text text-anchor="middle" x="331" y="-301.166" font-family="Helvetica,sans-Serif" font-size="10.00">LinkedList::insertBefore</text>
</a>
</g>
</g>
<!-- Node47&#45;&gt;Node50 -->
<g id="edge3" class="edge"><title>Node47&#45;&gt;Node50</title>
<path fill="none" stroke="midnightblue" d="M48.5967,-189.569C59.8072,-213.244 82.4267,-253.07 115,-272.666 162.181,-301.049 225.476,-307.14 271.159,-307.135"/>
<polygon fill="midnightblue" stroke="midnightblue" points="51.6856,-187.906 44.374,-180.238 45.3082,-190.792 51.6856,-187.906"/>
</g>
<!-- Node51 -->
<g id="node5" class="node"><title>Node51</title>
<g id="a_node5"><a xlink:href="class_linked_list.html#a8b87744316967b16f272be10cd6718ed" target="_top" xlink:title="LinkedList::insertEnd">
<polygon fill="white" stroke="black" points="277,-256.166 277,-275.166 385,-275.166 385,-256.166 277,-256.166"/>
<text text-anchor="middle" x="331" y="-263.166" font-family="Helvetica,sans-Serif" font-size="10.00">LinkedList::insertEnd</text>
</a>
</g>
</g>
<!-- Node47&#45;&gt;Node51 -->
<g id="edge5" class="edge"><title>Node47&#45;&gt;Node51</title>
<path fill="none" stroke="midnightblue" d="M52.3615,-188.773C65.352,-206.901 87.9753,-233.885 115,-246.666 166.151,-270.856 231.761,-273.12 276.978,-270.907"/>
<polygon fill="midnightblue" stroke="midnightblue" points="55.028,-186.474 46.4741,-180.223 49.2625,-190.444 55.028,-186.474"/>
</g>
<!-- Node52 -->
<g id="node6" class="node"><title>Node52</title>
<g id="a_node6"><a xlink:href="class_linked_list.html#a2e67fa8d36b83febafbd5f3801ec43db" target="_top" xlink:title="LinkedList::append">
<polygon fill="white" stroke="black" points="125.5,-218.166 125.5,-237.166 223.5,-237.166 223.5,-218.166 125.5,-218.166"/>
<text text-anchor="middle" x="174.5" y="-225.166" font-family="Helvetica,sans-Serif" font-size="10.00">LinkedList::append</text>
</a>
</g>
</g>
<!-- Node47&#45;&gt;Node52 -->
<g id="edge7" class="edge"><title>Node47&#45;&gt;Node52</title>
<path fill="none" stroke="midnightblue" d="M70.9182,-184.367C84.3877,-190.375 100.446,-197.458 115,-203.666 126.41,-208.532 139.146,-213.779 149.813,-218.121"/>
<polygon fill="midnightblue" stroke="midnightblue" points="72.1838,-181.099 61.6263,-180.21 69.3251,-187.489 72.1838,-181.099"/>
</g>
<!-- Node54 -->
<g id="node8" class="node"><title>Node54</title>
<g id="a_node8"><a xlink:href="class_linked_list.html#af8ccdfe634eed9feae0c641766e2e867" target="_top" xlink:title="LinkedList::deleteBeg">
<polygon fill="white" stroke="black" points="276,-180.166 276,-199.166 386,-199.166 386,-180.166 276,-180.166"/>
<text text-anchor="middle" x="331" y="-187.166" font-family="Helvetica,sans-Serif" font-size="10.00">LinkedList::deleteBeg</text>
</a>
</g>
</g>
<!-- Node47&#45;&gt;Node54 -->
<g id="edge9" class="edge"><title>Node47&#45;&gt;Node54</title>
<path fill="none" stroke="midnightblue" d="M89.4878,-173.881C141.183,-177.273 222.435,-182.606 275.963,-186.119"/>
<polygon fill="midnightblue" stroke="midnightblue" points="89.4506,-170.371 79.2429,-173.208 88.9922,-177.356 89.4506,-170.371"/>
</g>
<!-- Node55 -->
<g id="node9" class="node"><title>Node55</title>
<g id="a_node9"><a xlink:href="class_linked_list.html#a9a53a4d26d1c757f3d526db3fa43c2f8" target="_top" xlink:title="LinkedList::deleteNode">
<polygon fill="white" stroke="black" points="116.5,-142.166 116.5,-161.166 232.5,-161.166 232.5,-142.166 116.5,-142.166"/>
<text text-anchor="middle" x="174.5" y="-149.166" font-family="Helvetica,sans-Serif" font-size="10.00">LinkedList::deleteNode</text>
</a>
</g>
</g>
<!-- Node47&#45;&gt;Node55 -->
<g id="edge11" class="edge"><title>Node47&#45;&gt;Node55</title>
<path fill="none" stroke="midnightblue" d="M89.3101,-163.693C98.019,-162.449 107.164,-161.142 116.087,-159.867"/>
<polygon fill="midnightblue" stroke="midnightblue" points="88.7311,-160.24 79.3266,-165.119 89.7211,-167.169 88.7311,-160.24"/>
</g>
<!-- Node56 -->
<g id="node10" class="node"><title>Node56</title>
<g id="a_node10"><a xlink:href="class_linked_list.html#ab624ff78c70aaa517a3a98a4e7fec288" target="_top" xlink:title="LinkedList::deleteEnd">
<polygon fill="white" stroke="black" points="119.5,-104.166 119.5,-123.166 229.5,-123.166 229.5,-104.166 119.5,-104.166"/>
<text text-anchor="middle" x="174.5" y="-111.166" font-family="Helvetica,sans-Serif" font-size="10.00">LinkedList::deleteEnd</text>
</a>
</g>
</g>
<!-- Node47&#45;&gt;Node56 -->
<g id="edge13" class="edge"><title>Node47&#45;&gt;Node56</title>
<path fill="none" stroke="midnightblue" d="M66.4006,-156.181C80.5137,-148.615 98.4346,-139.53 115,-132.666 123.287,-129.232 132.434,-126.006 140.984,-123.221"/>
<polygon fill="midnightblue" stroke="midnightblue" points="64.414,-153.277 57.3017,-161.13 67.7587,-159.426 64.414,-153.277"/>
</g>
<!-- Node57 -->
<g id="node11" class="node"><title>Node57</title>
<g id="a_node11"><a xlink:href="class_linked_list.html#a8b00d7145aa7ee83ba2e49623285e371" target="_top" xlink:title="LinkedList::deleteAll">
<polygon fill="white" stroke="black" points="122.5,-66.1656 122.5,-85.1656 226.5,-85.1656 226.5,-66.1656 122.5,-66.1656"/>
<text text-anchor="middle" x="174.5" y="-73.1656" font-family="Helvetica,sans-Serif" font-size="10.00">LinkedList::deleteAll</text>
</a>
</g>
</g>
<!-- Node47&#45;&gt;Node57 -->
<g id="edge15" class="edge"><title>Node47&#45;&gt;Node57</title>
<path fill="none" stroke="midnightblue" d="M53.6642,-152.943C67.2673,-135.787 89.9892,-110.162 115,-94.6656 121.173,-90.8411 128.194,-87.7078 135.177,-85.1683"/>
<polygon fill="midnightblue" stroke="midnightblue" points="50.7522,-150.988 47.4181,-161.044 56.2959,-155.262 50.7522,-150.988"/>
</g>
<!-- Node58 -->
<g id="node12" class="node"><title>Node58</title>
<g id="a_node12"><a xlink:href="class_linked_list.html#ac517f07c7f197202fa085246fb3f07e8" target="_top" xlink:title="LinkedList::insertSorted">
<polygon fill="white" stroke="black" points="115,-28.1656 115,-47.1656 234,-47.1656 234,-28.1656 115,-28.1656"/>
<text text-anchor="middle" x="174.5" y="-35.1656" font-family="Helvetica,sans-Serif" font-size="10.00">LinkedList::insertSorted</text>
</a>
</g>
</g>
<!-- Node47&#45;&gt;Node58 -->
<g id="edge17" class="edge"><title>Node47&#45;&gt;Node58</title>
<path fill="none" stroke="midnightblue" d="M48.1197,-151.578C59.1627,-126.287 81.9725,-81.9298 115,-56.6656 120.089,-52.7728 126.006,-49.6611 132.083,-47.1781"/>
<polygon fill="midnightblue" stroke="midnightblue" points="44.7501,-150.563 44.1119,-161.139 51.2058,-153.269 44.7501,-150.563"/>
</g>
<!-- Node59 -->
<g id="node13" class="node"><title>Node59</title>
<g id="a_node13"><a xlink:href="class_linked_list.html#a04e277f98f8e6e5426f19ad780915e00" target="_top" xlink:title="LinkedList::insertionSort">
<polygon fill="white" stroke="black" points="270,-28.1656 270,-47.1656 392,-47.1656 392,-28.1656 270,-28.1656"/>
<text text-anchor="middle" x="331" y="-35.1656" font-family="Helvetica,sans-Serif" font-size="10.00">LinkedList::insertionSort</text>
</a>
</g>
</g>
<!-- Node47&#45;&gt;Node59 -->
<g id="edge20" class="edge"><title>Node47&#45;&gt;Node59</title>
<path fill="none" stroke="midnightblue" d="M43.4855,-150.742C49.7855,-116.658 67.9497,-48.0025 115,-18.6656 176.686,19.7974 268.35,-10.9464 309.131,-28.0939"/>
<polygon fill="midnightblue" stroke="midnightblue" points="39.9894,-150.426 41.7792,-160.869 46.8921,-151.59 39.9894,-150.426"/>
</g>
<!-- Node49 -->
<g id="node3" class="node"><title>Node49</title>
<g id="a_node3"><a xlink:href="main_8cpp.html#ae66f6b31b5ad750f1fe042a706a4e3d4" target="_top" xlink:title="main">
<polygon fill="white" stroke="black" points="428,-161.166 428,-180.166 466,-180.166 466,-161.166 428,-161.166"/>
<text text-anchor="middle" x="447" y="-168.166" font-family="Helvetica,sans-Serif" font-size="10.00">main</text>
</a>
</g>
</g>
<!-- Node48&#45;&gt;Node49 -->
<g id="edge2" class="edge"><title>Node48&#45;&gt;Node49</title>
<path fill="none" stroke="midnightblue" d="M386.758,-327.004C388.614,-325.681 390.372,-324.238 392,-322.666 433.897,-282.197 443.36,-207.146 445.435,-180.425"/>
<polygon fill="midnightblue" stroke="midnightblue" points="384.957,-324.003 378.094,-332.075 388.493,-330.045 384.957,-324.003"/>
</g>
<!-- Node50&#45;&gt;Node49 -->
<g id="edge4" class="edge"><title>Node50&#45;&gt;Node49</title>
<path fill="none" stroke="midnightblue" d="M385.754,-289.317C387.958,-287.909 390.055,-286.363 392,-284.666 425.164,-255.722 439.54,-201.951 444.186,-180.183"/>
<polygon fill="midnightblue" stroke="midnightblue" points="383.986,-286.293 376.814,-294.092 387.283,-292.468 383.986,-286.293"/>
</g>
<!-- Node51&#45;&gt;Node49 -->
<g id="edge6" class="edge"><title>Node51&#45;&gt;Node49</title>
<path fill="none" stroke="midnightblue" d="M383.528,-251.902C386.499,-250.336 389.351,-248.596 392,-246.666 416.46,-228.837 433.999,-196.502 441.677,-180.367"/>
<polygon fill="midnightblue" stroke="midnightblue" points="381.982,-248.76 374.341,-256.098 384.891,-255.127 381.982,-248.76"/>
</g>
<!-- Node53 -->
<g id="node7" class="node"><title>Node53</title>
<g id="a_node7"><a xlink:href="class_linked_list.html#a5dd2a88ad50e83aee19dea51c8d87d90" target="_top" xlink:title="LinkedList::LinkedList">
<polygon fill="white" stroke="black" points="275.5,-218.166 275.5,-237.166 386.5,-237.166 386.5,-218.166 275.5,-218.166"/>
<text text-anchor="middle" x="331" y="-225.166" font-family="Helvetica,sans-Serif" font-size="10.00">LinkedList::LinkedList</text>
</a>
</g>
</g>
<!-- Node52&#45;&gt;Node53 -->
<g id="edge8" class="edge"><title>Node52&#45;&gt;Node53</title>
<path fill="none" stroke="midnightblue" d="M233.748,-227.666C247.354,-227.666 261.798,-227.666 275.245,-227.666"/>
<polygon fill="midnightblue" stroke="midnightblue" points="233.538,-224.166 223.538,-227.666 233.538,-231.166 233.538,-224.166"/>
</g>
<!-- Node54&#45;&gt;Node49 -->
<g id="edge10" class="edge"><title>Node54&#45;&gt;Node49</title>
<path fill="none" stroke="midnightblue" d="M396.531,-178.91C408.072,-176.987 419.195,-175.133 427.96,-173.672"/>
<polygon fill="midnightblue" stroke="midnightblue" points="395.618,-175.514 386.329,-180.611 396.768,-182.419 395.618,-175.514"/>
</g>
<!-- Node55&#45;&gt;Node49 -->
<g id="edge12" class="edge"><title>Node55&#45;&gt;Node49</title>
<path fill="none" stroke="midnightblue" d="M242.532,-156.374C303.88,-160.683 390.594,-166.774 427.844,-169.39"/>
<polygon fill="midnightblue" stroke="midnightblue" points="242.756,-152.881 232.536,-155.672 242.266,-159.864 242.756,-152.881"/>
</g>
<!-- Node56&#45;&gt;Node49 -->
<g id="edge14" class="edge"><title>Node56&#45;&gt;Node49</title>
<path fill="none" stroke="midnightblue" d="M239.836,-123.434C283.134,-130.525 341.35,-141.064 392,-153.666 404.018,-156.656 417.287,-160.82 427.664,-164.279"/>
<polygon fill="midnightblue" stroke="midnightblue" points="240.152,-119.939 229.721,-121.795 239.033,-126.849 240.152,-119.939"/>
</g>
<!-- Node57&#45;&gt;Node49 -->
<g id="edge16" class="edge"><title>Node57&#45;&gt;Node49</title>
<path fill="none" stroke="midnightblue" d="M237.003,-81.5979C281.853,-87.7844 343.084,-100.182 392,-124.666 410.281,-133.816 427.56,-150.441 437.449,-161"/>
<polygon fill="midnightblue" stroke="midnightblue" points="237.204,-78.0944 226.833,-80.2624 236.292,-85.0348 237.204,-78.0944"/>
</g>
<!-- Node58&#45;&gt;Node59 -->
<g id="edge18" class="edge"><title>Node58&#45;&gt;Node59</title>
<path fill="none" stroke="midnightblue" d="M244.528,-37.6656C252.947,-37.6656 261.499,-37.6656 269.775,-37.6656"/>
<polygon fill="midnightblue" stroke="midnightblue" points="244.351,-34.1657 234.351,-37.6656 244.351,-41.1657 244.351,-34.1657"/>
</g>
<!-- Node59&#45;&gt;Node49 -->
<g id="edge19" class="edge"><title>Node59&#45;&gt;Node49</title>
<path fill="none" stroke="midnightblue" d="M377.252,-51.4709C382.591,-54.2989 387.67,-57.667 392,-61.6656 422.874,-90.1785 438.379,-140.227 443.753,-161.101"/>
<polygon fill="midnightblue" stroke="midnightblue" points="378.651,-48.2613 368.109,-47.2054 375.692,-54.605 378.651,-48.2613"/>
</g>
</g>
</svg>
