<?xml version="1.0" encoding="UTF-8" standalone="no"?>
<!DOCTYPE svg PUBLIC "-//W3C//DTD SVG 1.1//EN"
 "http://www.w3.org/Graphics/SVG/1.1/DTD/svg11.dtd">
<!-- Generated by graphviz version 2.38.0 (20140413.2041)
 -->
<!-- Title: LinkedList::insertSorted Pages: 1 -->
<svg width="359pt" height="28pt"
 viewBox="0.00 0.00 359.00 28.00" xmlns="http://www.w3.org/2000/svg" xmlns:xlink="http://www.w3.org/1999/xlink">
<g id="graph0" class="graph" transform="scale(1 1) rotate(0) translate(4 24)">
<title>LinkedList::insertSorted</title>
<polygon fill="white" stroke="none" points="-4,4 -4,-24 355,-24 355,4 -4,4"/>
<!-- Node100 -->
<g id="node1" class="node"><title>Node100</title>
<polygon fill="#bfbfbf" stroke="black" points="0,-0.5 0,-19.5 119,-19.5 119,-0.5 0,-0.5"/>
<text text-anchor="middle" x="59.5" y="-7.5" font-family="Helvetica,sans-Serif" font-size="10.00">LinkedList::insertSorted</text>
</g>
<!-- Node101 -->
<g id="node2" class="node"><title>Node101</title>
<g id="a_node2"><a xlink:href="class_linked_list.html#a04e277f98f8e6e5426f19ad780915e00" target="_top" xlink:title="LinkedList::insertionSort">
<polygon fill="white" stroke="black" points="155,-0.5 155,-19.5 277,-19.5 277,-0.5 155,-0.5"/>
<text text-anchor="middle" x="216" y="-7.5" font-family="Helvetica,sans-Serif" font-size="10.00">LinkedList::insertionSort</text>
</a>
</g>
</g>
<!-- Node100&#45;&gt;Node101 -->
<g id="edge1" class="edge"><title>Node100&#45;&gt;Node101</title>
<path fill="none" stroke="midnightblue" d="M129.528,-10C137.947,-10 146.499,-10 154.775,-10"/>
<polygon fill="midnightblue" stroke="midnightblue" points="129.351,-6.5001 119.351,-10 129.351,-13.5001 129.351,-6.5001"/>
</g>
<!-- Node102 -->
<g id="node3" class="node"><title>Node102</title>
<g id="a_node3"><a xlink:href="main_8cpp.html#ae66f6b31b5ad750f1fe042a706a4e3d4" target="_top" xlink:title="main">
<polygon fill="white" stroke="black" points="313,-0.5 313,-19.5 351,-19.5 351,-0.5 313,-0.5"/>
<text text-anchor="middle" x="332" y="-7.5" font-family="Helvetica,sans-Serif" font-size="10.00">main</text>
</a>
</g>
</g>
<!-- Node101&#45;&gt;Node102 -->
<g id="edge2" class="edge"><title>Node101&#45;&gt;Node102</title>
<path fill="none" stroke="midnightblue" d="M287.038,-10C296.534,-10 305.52,-10 312.864,-10"/>
<polygon fill="midnightblue" stroke="midnightblue" points="287.005,-6.5001 277.005,-10 287.005,-13.5001 287.005,-6.5001"/>
</g>
</g>
</svg>
