<?xml version="1.0" encoding="UTF-8" standalone="no"?>
<!DOCTYPE svg PUBLIC "-//W3C//DTD SVG 1.1//EN"
 "http://www.w3.org/Graphics/SVG/1.1/DTD/svg11.dtd">
<!-- Generated by graphviz version 2.38.0 (20140413.2041)
 -->
<!-- Title: Node::getData Pages: 1 -->
<svg width="474pt" height="360pt"
 viewBox="0.00 0.00 474.00 359.67" xmlns="http://www.w3.org/2000/svg" xmlns:xlink="http://www.w3.org/1999/xlink">
<g id="graph0" class="graph" transform="scale(1 1) rotate(0) translate(4 355.666)">
<title>Node::getData</title>
<polygon fill="white" stroke="none" points="-4,4 -4,-355.666 470,-355.666 470,4 -4,4"/>
<!-- Node11 -->
<g id="node1" class="node"><title>Node11</title>
<polygon fill="#bfbfbf" stroke="black" points="0,-161.166 0,-180.166 79,-180.166 79,-161.166 0,-161.166"/>
<text text-anchor="middle" x="39.5" y="-168.166" font-family="Helvetica,sans-Serif" font-size="10.00">Node::getData</text>
</g>
<!-- Node12 -->
<g id="node2" class="node"><title>Node12</title>
<g id="a_node2"><a xlink:href="class_linked_list.html#a5dd2a88ad50e83aee19dea51c8d87d90" target="_top" xlink:title="LinkedList::LinkedList">
<polygon fill="white" stroke="black" points="119,-332.166 119,-351.166 230,-351.166 230,-332.166 119,-332.166"/>
<text text-anchor="middle" x="174.5" y="-339.166" font-family="Helvetica,sans-Serif" font-size="10.00">LinkedList::LinkedList</text>
</a>
</g>
</g>
<!-- Node11&#45;&gt;Node12 -->
<g id="edge1" class="edge"><title>Node11&#45;&gt;Node12</title>
<path fill="none" stroke="midnightblue" d="M45.6324,-190.352C54.6716,-221.402 76.2445,-281.884 115,-317.666 121.695,-323.846 130.198,-328.542 138.632,-332.066"/>
<polygon fill="midnightblue" stroke="midnightblue" points="48.903,-189.048 42.8607,-180.345 42.157,-190.916 48.903,-189.048"/>
</g>
<!-- Node13 -->
<g id="node3" class="node"><title>Node13</title>
<g id="a_node3"><a xlink:href="class_linked_list.html#a8b00d7145aa7ee83ba2e49623285e371" target="_top" xlink:title="LinkedList::deleteAll">
<polygon fill="white" stroke="black" points="279,-294.166 279,-313.166 383,-313.166 383,-294.166 279,-294.166"/>
<text text-anchor="middle" x="331" y="-301.166" font-family="Helvetica,sans-Serif" font-size="10.00">LinkedList::deleteAll</text>
</a>
</g>
</g>
<!-- Node11&#45;&gt;Node13 -->
<g id="edge2" class="edge"><title>Node11&#45;&gt;Node13</title>
<path fill="none" stroke="midnightblue" d="M47.6717,-189.912C58.2084,-215.219 80.4481,-258.898 115,-279.666 164.735,-309.559 232.748,-312.112 278.862,-309.437"/>
<polygon fill="midnightblue" stroke="midnightblue" points="50.806,-188.32 43.8707,-180.311 44.2975,-190.897 50.806,-188.32"/>
</g>
<!-- Node14 -->
<g id="node4" class="node"><title>Node14</title>
<g id="a_node4"><a xlink:href="main_8cpp.html#ae66f6b31b5ad750f1fe042a706a4e3d4" target="_top" xlink:title="main">
<polygon fill="white" stroke="black" points="428,-161.166 428,-180.166 466,-180.166 466,-161.166 428,-161.166"/>
<text text-anchor="middle" x="447" y="-168.166" font-family="Helvetica,sans-Serif" font-size="10.00">main</text>
</a>
</g>
</g>
<!-- Node11&#45;&gt;Node14 -->
<g id="edge18" class="edge"><title>Node11&#45;&gt;Node14</title>
<path fill="none" stroke="midnightblue" d="M61.1048,-186.231C75.4916,-196.365 95.5341,-209.067 115,-216.666 230.354,-261.695 281.964,-303.466 392,-246.666 419.327,-232.559 435.836,-197.528 442.532,-180.403"/>
<polygon fill="midnightblue" stroke="midnightblue" points="63.0879,-183.346 52.9337,-180.322 58.9859,-189.018 63.0879,-183.346"/>
</g>
<!-- Node15 -->
<g id="node5" class="node"><title>Node15</title>
<g id="a_node5"><a xlink:href="class_linked_list.html#a2d03b30bf762af404a7a687aceff7123" target="_top" xlink:title="LinkedList::printListR">
<polygon fill="white" stroke="black" points="277,-218.166 277,-237.166 385,-237.166 385,-218.166 277,-218.166"/>
<text text-anchor="middle" x="331" y="-225.166" font-family="Helvetica,sans-Serif" font-size="10.00">LinkedList::printListR</text>
</a>
</g>
</g>
<!-- Node11&#45;&gt;Node15 -->
<g id="edge4" class="edge"><title>Node11&#45;&gt;Node15</title>
<path fill="none" stroke="midnightblue" d="M79.329,-183.136C90.7434,-186.528 103.305,-189.998 115,-192.666 169.569,-205.112 232.901,-214.866 276.626,-220.88"/>
<polygon fill="midnightblue" stroke="midnightblue" points="80.2297,-179.752 69.6442,-180.197 78.1968,-186.45 80.2297,-179.752"/>
</g>
<!-- Node16 -->
<g id="node6" class="node"><title>Node16</title>
<g id="a_node6"><a xlink:href="class_linked_list.html#ac96230938fd74a4efeb4efe8c995ee53" target="_top" xlink:title="LinkedList::printList">
<polygon fill="white" stroke="black" points="280.5,-180.166 280.5,-199.166 381.5,-199.166 381.5,-180.166 280.5,-180.166"/>
<text text-anchor="middle" x="331" y="-187.166" font-family="Helvetica,sans-Serif" font-size="10.00">LinkedList::printList</text>
</a>
</g>
</g>
<!-- Node11&#45;&gt;Node16 -->
<g id="edge6" class="edge"><title>Node11&#45;&gt;Node16</title>
<path fill="none" stroke="midnightblue" d="M89.4321,-173.877C142.554,-177.363 226.933,-182.901 280.339,-186.406"/>
<polygon fill="midnightblue" stroke="midnightblue" points="89.4506,-170.371 79.2429,-173.208 88.9922,-177.356 89.4506,-170.371"/>
</g>
<!-- Node17 -->
<g id="node7" class="node"><title>Node17</title>
<g id="a_node7"><a xlink:href="class_linked_list.html#a2866982bfe5f87a2a265d1e2ec3e43ed" target="_top" xlink:title="LinkedList::getElement">
<polygon fill="white" stroke="black" points="273,-142.166 273,-161.166 389,-161.166 389,-142.166 273,-142.166"/>
<text text-anchor="middle" x="331" y="-149.166" font-family="Helvetica,sans-Serif" font-size="10.00">LinkedList::getElement</text>
</a>
</g>
</g>
<!-- Node11&#45;&gt;Node17 -->
<g id="edge8" class="edge"><title>Node11&#45;&gt;Node17</title>
<path fill="none" stroke="midnightblue" d="M89.2927,-167.463C139.971,-164.137 219.205,-158.937 272.796,-155.42"/>
<polygon fill="midnightblue" stroke="midnightblue" points="88.9922,-163.975 79.2429,-168.123 89.4506,-170.96 88.9922,-163.975"/>
</g>
<!-- Node18 -->
<g id="node8" class="node"><title>Node18</title>
<g id="a_node8"><a xlink:href="class_linked_list.html#ac2fac6f86f1891576b57c2866ff77803" target="_top" xlink:title="LinkedList::contains">
<polygon fill="white" stroke="black" points="122.5,-104.166 122.5,-123.166 226.5,-123.166 226.5,-104.166 122.5,-104.166"/>
<text text-anchor="middle" x="174.5" y="-111.166" font-family="Helvetica,sans-Serif" font-size="10.00">LinkedList::contains</text>
</a>
</g>
</g>
<!-- Node11&#45;&gt;Node18 -->
<g id="edge10" class="edge"><title>Node11&#45;&gt;Node18</title>
<path fill="none" stroke="midnightblue" d="M70.9182,-156.964C84.3877,-150.956 100.446,-143.873 115,-137.666 126.41,-132.799 139.146,-127.553 149.813,-123.21"/>
<polygon fill="midnightblue" stroke="midnightblue" points="69.3251,-153.842 61.6263,-161.121 72.1838,-160.232 69.3251,-153.842"/>
</g>
<!-- Node19 -->
<g id="node9" class="node"><title>Node19</title>
<g id="a_node9"><a xlink:href="class_linked_list.html#a67c86ff482738c1ab36bb8c764a7f3f7" target="_top" xlink:title="LinkedList::containsR">
<polygon fill="white" stroke="black" points="119.5,-66.1656 119.5,-85.1656 229.5,-85.1656 229.5,-66.1656 119.5,-66.1656"/>
<text text-anchor="middle" x="174.5" y="-73.1656" font-family="Helvetica,sans-Serif" font-size="10.00">LinkedList::containsR</text>
</a>
</g>
</g>
<!-- Node11&#45;&gt;Node19 -->
<g id="edge12" class="edge"><title>Node11&#45;&gt;Node19</title>
<path fill="none" stroke="midnightblue" d="M53.6642,-152.943C67.2673,-135.787 89.9892,-110.162 115,-94.6656 121.173,-90.8411 128.194,-87.7078 135.177,-85.1683"/>
<polygon fill="midnightblue" stroke="midnightblue" points="50.7522,-150.988 47.4181,-161.044 56.2959,-155.262 50.7522,-150.988"/>
</g>
<!-- Node20 -->
<g id="node10" class="node"><title>Node20</title>
<g id="a_node10"><a xlink:href="class_linked_list.html#ac517f07c7f197202fa085246fb3f07e8" target="_top" xlink:title="LinkedList::insertSorted">
<polygon fill="white" stroke="black" points="115,-28.1656 115,-47.1656 234,-47.1656 234,-28.1656 115,-28.1656"/>
<text text-anchor="middle" x="174.5" y="-35.1656" font-family="Helvetica,sans-Serif" font-size="10.00">LinkedList::insertSorted</text>
</a>
</g>
</g>
<!-- Node11&#45;&gt;Node20 -->
<g id="edge14" class="edge"><title>Node11&#45;&gt;Node20</title>
<path fill="none" stroke="midnightblue" d="M48.1197,-151.578C59.1627,-126.287 81.9725,-81.9298 115,-56.6656 120.089,-52.7728 126.006,-49.6611 132.083,-47.1781"/>
<polygon fill="midnightblue" stroke="midnightblue" points="44.7501,-150.563 44.1119,-161.139 51.2058,-153.269 44.7501,-150.563"/>
</g>
<!-- Node21 -->
<g id="node11" class="node"><title>Node21</title>
<g id="a_node11"><a xlink:href="class_linked_list.html#a04e277f98f8e6e5426f19ad780915e00" target="_top" xlink:title="LinkedList::insertionSort">
<polygon fill="white" stroke="black" points="270,-28.1656 270,-47.1656 392,-47.1656 392,-28.1656 270,-28.1656"/>
<text text-anchor="middle" x="331" y="-35.1656" font-family="Helvetica,sans-Serif" font-size="10.00">LinkedList::insertionSort</text>
</a>
</g>
</g>
<!-- Node11&#45;&gt;Node21 -->
<g id="edge17" class="edge"><title>Node11&#45;&gt;Node21</title>
<path fill="none" stroke="midnightblue" d="M43.4855,-150.742C49.7855,-116.658 67.9497,-48.0025 115,-18.6656 176.686,19.7974 268.35,-10.9464 309.131,-28.0939"/>
<polygon fill="midnightblue" stroke="midnightblue" points="39.9894,-150.426 41.7792,-160.869 46.8921,-151.59 39.9894,-150.426"/>
</g>
<!-- Node13&#45;&gt;Node14 -->
<g id="edge3" class="edge"><title>Node13&#45;&gt;Node14</title>
<path fill="none" stroke="midnightblue" d="M377.252,-289.86C382.591,-287.032 387.67,-283.664 392,-279.666 422.874,-251.153 438.379,-201.104 443.753,-180.23"/>
<polygon fill="midnightblue" stroke="midnightblue" points="375.692,-286.726 368.109,-294.126 378.651,-293.07 375.692,-286.726"/>
</g>
<!-- Node15&#45;&gt;Node14 -->
<g id="edge5" class="edge"><title>Node15&#45;&gt;Node14</title>
<path fill="none" stroke="midnightblue" d="M377.693,-214.827C382.608,-212.967 387.466,-210.912 392,-208.666 407.819,-200.829 424.147,-188.669 434.647,-180.224"/>
<polygon fill="midnightblue" stroke="midnightblue" points="376.505,-211.535 368.239,-218.162 378.834,-218.136 376.505,-211.535"/>
</g>
<!-- Node16&#45;&gt;Node14 -->
<g id="edge7" class="edge"><title>Node16&#45;&gt;Node14</title>
<path fill="none" stroke="midnightblue" d="M391.744,-179.708C404.929,-177.511 417.918,-175.346 427.879,-173.686"/>
<polygon fill="midnightblue" stroke="midnightblue" points="390.959,-176.291 381.67,-181.387 392.11,-183.195 390.959,-176.291"/>
</g>
<!-- Node17&#45;&gt;Node14 -->
<g id="edge9" class="edge"><title>Node17&#45;&gt;Node14</title>
<path fill="none" stroke="midnightblue" d="M399.433,-162.904C409.863,-164.643 419.809,-166.3 427.812,-167.634"/>
<polygon fill="midnightblue" stroke="midnightblue" points="399.773,-159.413 389.334,-161.221 398.622,-166.318 399.773,-159.413"/>
</g>
<!-- Node18&#45;&gt;Node14 -->
<g id="edge11" class="edge"><title>Node18&#45;&gt;Node14</title>
<path fill="none" stroke="midnightblue" d="M236.613,-110.67C281.016,-110.469 341.861,-114.342 392,-132.666 409.012,-138.883 425.595,-151.9 435.797,-160.956"/>
<polygon fill="midnightblue" stroke="midnightblue" points="236.507,-107.171 226.548,-110.786 236.588,-114.17 236.507,-107.171"/>
</g>
<!-- Node19&#45;&gt;Node14 -->
<g id="edge13" class="edge"><title>Node19&#45;&gt;Node14</title>
<path fill="none" stroke="midnightblue" d="M239.848,-73.1179C285.039,-74.0329 345.476,-80.8808 392,-106.666 415.142,-119.492 432.672,-146.428 440.873,-160.929"/>
<polygon fill="midnightblue" stroke="midnightblue" points="239.616,-69.6153 229.578,-73.0059 239.54,-76.6149 239.616,-69.6153"/>
</g>
<!-- Node20&#45;&gt;Node21 -->
<g id="edge15" class="edge"><title>Node20&#45;&gt;Node21</title>
<path fill="none" stroke="midnightblue" d="M244.528,-37.6656C252.947,-37.6656 261.499,-37.6656 269.775,-37.6656"/>
<polygon fill="midnightblue" stroke="midnightblue" points="244.351,-34.1657 234.351,-37.6656 244.351,-41.1657 244.351,-34.1657"/>
</g>
<!-- Node21&#45;&gt;Node14 -->
<g id="edge16" class="edge"><title>Node21&#45;&gt;Node14</title>
<path fill="none" stroke="midnightblue" d="M377.252,-51.4709C382.591,-54.2989 387.67,-57.667 392,-61.6656 422.874,-90.1785 438.379,-140.227 443.753,-161.101"/>
<polygon fill="midnightblue" stroke="midnightblue" points="378.651,-48.2613 368.109,-47.2054 375.692,-54.605 378.651,-48.2613"/>
</g>
</g>
</svg>
