<?xml version="1.0" encoding="UTF-8" standalone="no"?>
<!DOCTYPE svg PUBLIC "-//W3C//DTD SVG 1.1//EN"
 "http://www.w3.org/Graphics/SVG/1.1/DTD/svg11.dtd">
<!-- Generated by graphviz version 2.38.0 (20140413.2041)
 -->
<!-- Title: LinkedList::printListR Pages: 1 -->
<svg width="231pt" height="66pt"
 viewBox="0.00 0.00 231.00 66.00" xmlns="http://www.w3.org/2000/svg" xmlns:xlink="http://www.w3.org/1999/xlink">
<g id="graph0" class="graph" transform="scale(1 1) rotate(0) translate(4 62)">
<title>LinkedList::printListR</title>
<polygon fill="white" stroke="none" points="-4,4 -4,-62 227,-62 227,4 -4,4"/>
<!-- Node113 -->
<g id="node1" class="node"><title>Node113</title>
<polygon fill="#bfbfbf" stroke="black" points="0,-19.5 0,-38.5 108,-38.5 108,-19.5 0,-19.5"/>
<text text-anchor="middle" x="54" y="-26.5" font-family="Helvetica,sans-Serif" font-size="10.00">LinkedList::printListR</text>
</g>
<!-- Node114 -->
<g id="node2" class="node"><title>Node114</title>
<g id="a_node2"><a xlink:href="class_node.html#aca98907146d5d0687f48bf8be9df9b7d" target="_top" xlink:title="Node::getData">
<polygon fill="white" stroke="black" points="144,-38.5 144,-57.5 223,-57.5 223,-38.5 144,-38.5"/>
<text text-anchor="middle" x="183.5" y="-45.5" font-family="Helvetica,sans-Serif" font-size="10.00">Node::getData</text>
</a>
</g>
</g>
<!-- Node113&#45;&gt;Node114 -->
<g id="edge1" class="edge"><title>Node113&#45;&gt;Node114</title>
<path fill="none" stroke="midnightblue" d="M108.333,-36.9476C116.774,-38.2055 125.466,-39.5008 133.794,-40.7419"/>
<polygon fill="midnightblue" stroke="midnightblue" points="133.325,-44.2106 143.732,-42.2228 134.357,-37.287 133.325,-44.2106"/>
</g>
<!-- Node115 -->
<g id="node3" class="node"><title>Node115</title>
<g id="a_node3"><a xlink:href="class_node.html#ae36639ff267d63e058ce309fde5a9913" target="_top" xlink:title="Node::getNext">
<polygon fill="white" stroke="black" points="144,-0.5 144,-19.5 223,-19.5 223,-0.5 144,-0.5"/>
<text text-anchor="middle" x="183.5" y="-7.5" font-family="Helvetica,sans-Serif" font-size="10.00">Node::getNext</text>
</a>
</g>
</g>
<!-- Node113&#45;&gt;Node115 -->
<g id="edge2" class="edge"><title>Node113&#45;&gt;Node115</title>
<path fill="none" stroke="midnightblue" d="M108.333,-21.0524C116.774,-19.7945 125.466,-18.4992 133.794,-17.2581"/>
<polygon fill="midnightblue" stroke="midnightblue" points="134.357,-20.713 143.732,-15.7772 133.325,-13.7894 134.357,-20.713"/>
</g>
</g>
</svg>
