<?xml version="1.0" encoding="UTF-8" standalone="no"?>
<!DOCTYPE svg PUBLIC "-//W3C//DTD SVG 1.1//EN"
 "http://www.w3.org/Graphics/SVG/1.1/DTD/svg11.dtd">
<!-- Generated by graphviz version 2.38.0 (20140413.2041)
 -->
<!-- Title: Node::getNext Pages: 1 -->
<!--zoomable 703 -->
<svg id="main" version="1.1" xmlns="http://www.w3.org/2000/svg" xmlns:xlink="http://www.w3.org/1999/xlink" xml:space="preserve" onload="init(evt)">
<style type="text/css"><![CDATA[
.edge:hover path { stroke: red; }
.edge:hover polygon { stroke: red; fill: red; }
]]></style>
<script type="text/javascript"><![CDATA[
var edges = document.getElementsByTagName('g');
if (edges && edges.length) {
  for (var i=0;i<edges.length;i++) {
    if (edges[i].id.substr(0,4)=='edge') {
      edges[i].setAttribute('class','edge');
    }
  }
}
]]></script>
        <defs>
                <circle id="rim" cx="0" cy="0" r="7"/>
                <circle id="rim2" cx="0" cy="0" r="3.5"/>
                <g id="zoomPlus">
                        <use xlink:href="#rim" fill="#404040">
                                <set attributeName="fill" to="#808080" begin="zoomplus.mouseover" end="zoomplus.mouseout"/>
                        </use>
                        <path d="M-4,0h8M0,-4v8" fill="none" stroke="white" stroke-width="1.5" pointer-events="none"/>
                </g>
                <g id="zoomMin">
                        <use xlink:href="#rim" fill="#404040">
                                <set attributeName="fill" to="#808080" begin="zoomminus.mouseover" end="zoomminus.mouseout"/>
                        </use>
                        <path d="M-4,0h8" fill="none" stroke="white" stroke-width="1.5" pointer-events="none"/>
                </g>
                <g id="dirArrow">
                        <path fill="none" stroke="white" stroke-width="1.5" d="M0,-3.0v7 M-2.5,-0.5L0,-3.0L2.5,-0.5"/>
                </g>
               <g id="resetDef">
                       <use xlink:href="#rim2" fill="#404040">
                               <set attributeName="fill" to="#808080" begin="reset.mouseover" end="reset.mouseout"/>
                       </use>
               </g>
        </defs>

<script type="text/javascript">
var viewWidth = 474;
var viewHeight = 703;
var sectionId = 'dynsection-1';
</script>
<script xlink:href="svgpan.js"/>
<svg id="graph" class="graph">
<g id="viewport">
<title>Node::getNext</title>
<polygon fill="white" stroke="none" points="-4,4 -4,-699.145 470,-699.145 470,4 -4,4"/>
<!-- Node23 -->
<g id="node1" class="node"><title>Node23</title>
<polygon fill="#bfbfbf" stroke="black" points="0,-336.05 0,-355.05 79,-355.05 79,-336.05 0,-336.05"/>
<text text-anchor="middle" x="39.5" y="-343.05" font-family="Helvetica,sans-Serif" font-size="10.00">Node::getNext</text>
</g>
<!-- Node24 -->
<g id="node2" class="node"><title>Node24</title>
<g id="a_node2"><a xlink:href="class_linked_list.html#a5dd2a88ad50e83aee19dea51c8d87d90" target="_top" xlink:title="LinkedList::LinkedList">
<polygon fill="white" stroke="black" points="275.5,-659.05 275.5,-678.05 386.5,-678.05 386.5,-659.05 275.5,-659.05"/>
<text text-anchor="middle" x="331" y="-666.05" font-family="Helvetica,sans-Serif" font-size="10.00">LinkedList::LinkedList</text>
</a>
</g>
</g>
<!-- Node23&#45;&gt;Node24 -->
<g id="edge1" class="edge"><title>Node23&#45;&gt;Node24</title>
<path fill="none" stroke="midnightblue" d="M41.9227,-365.131C47.016,-429.112 66.6749,-630.102 115,-668.55 169.476,-711.891 258.687,-692.083 303.11,-678.133"/>
<polygon fill="midnightblue" stroke="midnightblue" points="45.4121,-364.857 41.1598,-355.153 38.4325,-365.391 45.4121,-364.857"/>
</g>
<!-- Node25 -->
<g id="node3" class="node"><title>Node25</title>
<g id="a_node3"><a xlink:href="class_linked_list.html#af508f8b52bbcf1485a1552ac8fc84b81" target="_top" xlink:title="LinkedList::insertAfter">
<polygon fill="white" stroke="black" points="275.5,-602.05 275.5,-621.05 386.5,-621.05 386.5,-602.05 275.5,-602.05"/>
<text text-anchor="middle" x="331" y="-609.05" font-family="Helvetica,sans-Serif" font-size="10.00">LinkedList::insertAfter</text>
</a>
</g>
</g>
<!-- Node23&#45;&gt;Node25 -->
<g id="edge2" class="edge"><title>Node23&#45;&gt;Node25</title>
<path fill="none" stroke="midnightblue" d="M41.7736,-365.624C45.4951,-406.875 59.9042,-501.574 115,-552.55 158.611,-592.9 227.222,-606.074 275.173,-610.155"/>
<polygon fill="midnightblue" stroke="midnightblue" points="45.25,-365.184 40.9825,-355.487 38.2713,-365.729 45.25,-365.184"/>
</g>
<!-- Node27 -->
<g id="node5" class="node"><title>Node27</title>
<g id="a_node5"><a xlink:href="class_linked_list.html#a895ad950cc619c9cf72273e5e59a100f" target="_top" xlink:title="LinkedList::insertBefore">
<polygon fill="white" stroke="black" points="271.5,-564.05 271.5,-583.05 390.5,-583.05 390.5,-564.05 271.5,-564.05"/>
<text text-anchor="middle" x="331" y="-571.05" font-family="Helvetica,sans-Serif" font-size="10.00">LinkedList::insertBefore</text>
</a>
</g>
</g>
<!-- Node23&#45;&gt;Node27 -->
<g id="edge4" class="edge"><title>Node23&#45;&gt;Node27</title>
<path fill="none" stroke="midnightblue" d="M43.6157,-365.168C50.2361,-400.263 69.0418,-473.825 115,-513.55 158.538,-551.182 223.91,-565.345 271.136,-570.603"/>
<polygon fill="midnightblue" stroke="midnightblue" points="47.0458,-364.465 41.8754,-355.217 40.1505,-365.671 47.0458,-364.465"/>
</g>
<!-- Node28 -->
<g id="node6" class="node"><title>Node28</title>
<g id="a_node6"><a xlink:href="class_linked_list.html#a8b87744316967b16f272be10cd6718ed" target="_top" xlink:title="LinkedList::insertEnd">
<polygon fill="white" stroke="black" points="277,-526.05 277,-545.05 385,-545.05 385,-526.05 277,-526.05"/>
<text text-anchor="middle" x="331" y="-533.05" font-family="Helvetica,sans-Serif" font-size="10.00">LinkedList::insertEnd</text>
</a>
</g>
</g>
<!-- Node23&#45;&gt;Node28 -->
<g id="edge6" class="edge"><title>Node23&#45;&gt;Node28</title>
<path fill="none" stroke="midnightblue" d="M46.2452,-364.674C55.7979,-393.166 77.6819,-446.511 115,-475.55 161.946,-512.081 229.893,-526.376 276.777,-531.966"/>
<polygon fill="midnightblue" stroke="midnightblue" points="49.556,-363.536 43.1813,-355.073 42.8874,-365.664 49.556,-363.536"/>
</g>
<!-- Node29 -->
<g id="node7" class="node"><title>Node29</title>
<g id="a_node7"><a xlink:href="class_linked_list.html#a2e67fa8d36b83febafbd5f3801ec43db" target="_top" xlink:title="LinkedList::append">
<polygon fill="white" stroke="black" points="125.5,-640.05 125.5,-659.05 223.5,-659.05 223.5,-640.05 125.5,-640.05"/>
<text text-anchor="middle" x="174.5" y="-647.05" font-family="Helvetica,sans-Serif" font-size="10.00">LinkedList::append</text>
</a>
</g>
</g>
<!-- Node23&#45;&gt;Node29 -->
<g id="edge8" class="edge"><title>Node23&#45;&gt;Node29</title>
<path fill="none" stroke="midnightblue" d="M40.0893,-365.214C40.1093,-415.093 46.9355,-548.065 115,-625.55 120.506,-631.818 127.899,-636.48 135.573,-639.936"/>
<polygon fill="midnightblue" stroke="midnightblue" points="43.5898,-365.169 40.1828,-355.137 36.5901,-365.104 43.5898,-365.169"/>
</g>
<!-- Node30 -->
<g id="node8" class="node"><title>Node30</title>
<g id="a_node8"><a xlink:href="class_linked_list.html#af8ccdfe634eed9feae0c641766e2e867" target="_top" xlink:title="LinkedList::deleteBeg">
<polygon fill="white" stroke="black" points="276,-488.05 276,-507.05 386,-507.05 386,-488.05 276,-488.05"/>
<text text-anchor="middle" x="331" y="-495.05" font-family="Helvetica,sans-Serif" font-size="10.00">LinkedList::deleteBeg</text>
</a>
</g>
</g>
<!-- Node23&#45;&gt;Node30 -->
<g id="edge10" class="edge"><title>Node23&#45;&gt;Node30</title>
<path fill="none" stroke="midnightblue" d="M50.2571,-363.999C62.5241,-385.393 85.5856,-420.192 115,-439.55 163.765,-471.643 229.804,-486.055 275.774,-492.479"/>
<polygon fill="midnightblue" stroke="midnightblue" points="53.3009,-362.27 45.3964,-355.216 47.1763,-365.66 53.3009,-362.27"/>
</g>
<!-- Node31 -->
<g id="node9" class="node"><title>Node31</title>
<g id="a_node9"><a xlink:href="class_linked_list.html#a9a53a4d26d1c757f3d526db3fa43c2f8" target="_top" xlink:title="LinkedList::deleteNode">
<polygon fill="white" stroke="black" points="273,-450.05 273,-469.05 389,-469.05 389,-450.05 273,-450.05"/>
<text text-anchor="middle" x="331" y="-457.05" font-family="Helvetica,sans-Serif" font-size="10.00">LinkedList::deleteNode</text>
</a>
</g>
</g>
<!-- Node23&#45;&gt;Node31 -->
<g id="edge12" class="edge"><title>Node23&#45;&gt;Node31</title>
<path fill="none" stroke="midnightblue" d="M56.1158,-362.282C70.2035,-376.393 92.1653,-396.074 115,-407.55 165.097,-432.727 227.982,-446.1 272.775,-452.943"/>
<polygon fill="midnightblue" stroke="midnightblue" points="58.6215,-359.838 49.1439,-355.102 53.5998,-364.715 58.6215,-359.838"/>
</g>
<!-- Node32 -->
<g id="node10" class="node"><title>Node32</title>
<g id="a_node10"><a xlink:href="class_linked_list.html#ab624ff78c70aaa517a3a98a4e7fec288" target="_top" xlink:title="LinkedList::deleteEnd">
<polygon fill="white" stroke="black" points="276,-412.05 276,-431.05 386,-431.05 386,-412.05 276,-412.05"/>
<text text-anchor="middle" x="331" y="-419.05" font-family="Helvetica,sans-Serif" font-size="10.00">LinkedList::deleteEnd</text>
</a>
</g>
</g>
<!-- Node23&#45;&gt;Node32 -->
<g id="edge14" class="edge"><title>Node23&#45;&gt;Node32</title>
<path fill="none" stroke="midnightblue" d="M66.7799,-359.878C80.7564,-366.984 98.4343,-375.174 115,-380.55 168.311,-397.852 231.564,-408.827 275.604,-415.022"/>
<polygon fill="midnightblue" stroke="midnightblue" points="68.2406,-356.692 57.7543,-355.179 65.0083,-362.901 68.2406,-356.692"/>
</g>
<!-- Node33 -->
<g id="node11" class="node"><title>Node33</title>
<g id="a_node11"><a xlink:href="class_linked_list.html#a8b00d7145aa7ee83ba2e49623285e371" target="_top" xlink:title="LinkedList::deleteAll">
<polygon fill="white" stroke="black" points="279,-374.05 279,-393.05 383,-393.05 383,-374.05 279,-374.05"/>
<text text-anchor="middle" x="331" y="-381.05" font-family="Helvetica,sans-Serif" font-size="10.00">LinkedList::deleteAll</text>
</a>
</g>
</g>
<!-- Node23&#45;&gt;Node33 -->
<g id="edge16" class="edge"><title>Node23&#45;&gt;Node33</title>
<path fill="none" stroke="midnightblue" d="M89.0271,-355.21C97.6591,-356.774 106.58,-358.291 115,-359.55 170.718,-367.883 234.956,-374.691 278.6,-378.899"/>
<polygon fill="midnightblue" stroke="midnightblue" points="89.5447,-351.747 79.0743,-353.366 88.269,-358.629 89.5447,-351.747"/>
</g>
<!-- Node34 -->
<g id="node12" class="node"><title>Node34</title>
<g id="a_node12"><a xlink:href="class_linked_list.html#a2d03b30bf762af404a7a687aceff7123" target="_top" xlink:title="LinkedList::printListR">
<polygon fill="white" stroke="black" points="277,-336.05 277,-355.05 385,-355.05 385,-336.05 277,-336.05"/>
<text text-anchor="middle" x="331" y="-343.05" font-family="Helvetica,sans-Serif" font-size="10.00">LinkedList::printListR</text>
</a>
</g>
</g>
<!-- Node23&#45;&gt;Node34 -->
<g id="edge18" class="edge"><title>Node23&#45;&gt;Node34</title>
<path fill="none" stroke="midnightblue" d="M89.5366,-345.55C141.487,-345.55 223.246,-345.55 276.745,-345.55"/>
<polygon fill="midnightblue" stroke="midnightblue" points="89.2429,-342.05 79.2429,-345.55 89.2428,-349.05 89.2429,-342.05"/>
</g>
<!-- Node35 -->
<g id="node13" class="node"><title>Node35</title>
<g id="a_node13"><a xlink:href="class_linked_list.html#ac96230938fd74a4efeb4efe8c995ee53" target="_top" xlink:title="LinkedList::printList">
<polygon fill="white" stroke="black" points="124,-298.05 124,-317.05 225,-317.05 225,-298.05 124,-298.05"/>
<text text-anchor="middle" x="174.5" y="-305.05" font-family="Helvetica,sans-Serif" font-size="10.00">LinkedList::printList</text>
</a>
</g>
</g>
<!-- Node23&#45;&gt;Node35 -->
<g id="edge20" class="edge"><title>Node23&#45;&gt;Node35</title>
<path fill="none" stroke="midnightblue" d="M83.8669,-333.159C102.081,-327.955 122.939,-321.996 139.949,-317.136"/>
<polygon fill="midnightblue" stroke="midnightblue" points="82.7152,-329.848 74.0615,-335.961 84.6383,-336.579 82.7152,-329.848"/>
</g>
<!-- Node36 -->
<g id="node14" class="node"><title>Node36</title>
<g id="a_node14"><a xlink:href="class_linked_list.html#af4b27646ebfb44d2fd0625b8ad1fb136" target="_top" xlink:title="LinkedList::getSizeR">
<polygon fill="white" stroke="black" points="121,-260.05 121,-279.05 228,-279.05 228,-260.05 121,-260.05"/>
<text text-anchor="middle" x="174.5" y="-267.05" font-family="Helvetica,sans-Serif" font-size="10.00">LinkedList::getSizeR</text>
</a>
</g>
</g>
<!-- Node23&#45;&gt;Node36 -->
<g id="edge22" class="edge"><title>Node23&#45;&gt;Node36</title>
<path fill="none" stroke="midnightblue" d="M58.4466,-329.004C72.8374,-316.463 94.0283,-299.563 115,-288.55 121.996,-284.876 129.836,-281.738 137.446,-279.134"/>
<polygon fill="midnightblue" stroke="midnightblue" points="55.9496,-326.541 50.8124,-335.807 60.6067,-331.767 55.9496,-326.541"/>
</g>
<!-- Node37 -->
<g id="node15" class="node"><title>Node37</title>
<g id="a_node15"><a xlink:href="class_linked_list.html#ac8d24166208694f4fe3cc982307b03fb" target="_top" xlink:title="LinkedList::getSize">
<polygon fill="white" stroke="black" points="124.5,-222.05 124.5,-241.05 224.5,-241.05 224.5,-222.05 124.5,-222.05"/>
<text text-anchor="middle" x="174.5" y="-229.05" font-family="Helvetica,sans-Serif" font-size="10.00">LinkedList::getSize</text>
</a>
</g>
</g>
<!-- Node23&#45;&gt;Node37 -->
<g id="edge24" class="edge"><title>Node23&#45;&gt;Node37</title>
<path fill="none" stroke="midnightblue" d="M50.382,-327.16C62.7695,-305.784 85.947,-270.851 115,-250.55 120.515,-246.697 126.858,-243.589 133.288,-241.094"/>
<polygon fill="midnightblue" stroke="midnightblue" points="47.3047,-325.492 45.4674,-335.926 53.4106,-328.915 47.3047,-325.492"/>
</g>
<!-- Node38 -->
<g id="node16" class="node"><title>Node38</title>
<g id="a_node16"><a xlink:href="class_linked_list.html#ad07d8659b87f77e9fb98a80eb71ed77a" target="_top" xlink:title="LinkedList::getLast">
<polygon fill="white" stroke="black" points="125,-184.05 125,-203.05 224,-203.05 224,-184.05 125,-184.05"/>
<text text-anchor="middle" x="174.5" y="-191.05" font-family="Helvetica,sans-Serif" font-size="10.00">LinkedList::getLast</text>
</a>
</g>
</g>
<!-- Node23&#45;&gt;Node38 -->
<g id="edge26" class="edge"><title>Node23&#45;&gt;Node38</title>
<path fill="none" stroke="midnightblue" d="M46.2769,-326.188C55.8709,-297.303 77.8078,-243.066 115,-212.55 119.706,-208.689 125.216,-205.606 130.939,-203.145"/>
<polygon fill="midnightblue" stroke="midnightblue" points="42.8791,-325.325 43.1982,-335.915 49.5528,-327.438 42.8791,-325.325"/>
</g>
<!-- Node39 -->
<g id="node17" class="node"><title>Node39</title>
<g id="a_node17"><a xlink:href="class_linked_list.html#a2866982bfe5f87a2a265d1e2ec3e43ed" target="_top" xlink:title="LinkedList::getElement">
<polygon fill="white" stroke="black" points="116.5,-146.05 116.5,-165.05 232.5,-165.05 232.5,-146.05 116.5,-146.05"/>
<text text-anchor="middle" x="174.5" y="-153.05" font-family="Helvetica,sans-Serif" font-size="10.00">LinkedList::getElement</text>
</a>
</g>
</g>
<!-- Node23&#45;&gt;Node39 -->
<g id="edge28" class="edge"><title>Node23&#45;&gt;Node39</title>
<path fill="none" stroke="midnightblue" d="M43.6753,-325.779C50.3913,-290.373 69.3445,-215.985 115,-174.55 119.27,-170.675 124.342,-167.589 129.686,-165.132"/>
<polygon fill="midnightblue" stroke="midnightblue" points="40.1957,-325.357 41.9065,-335.813 47.0894,-326.572 40.1957,-325.357"/>
</g>
<!-- Node40 -->
<g id="node18" class="node"><title>Node40</title>
<g id="a_node18"><a xlink:href="class_linked_list.html#ac2fac6f86f1891576b57c2866ff77803" target="_top" xlink:title="LinkedList::contains">
<polygon fill="white" stroke="black" points="122.5,-108.05 122.5,-127.05 226.5,-127.05 226.5,-108.05 122.5,-108.05"/>
<text text-anchor="middle" x="174.5" y="-115.05" font-family="Helvetica,sans-Serif" font-size="10.00">LinkedList::contains</text>
</a>
</g>
</g>
<!-- Node23&#45;&gt;Node40 -->
<g id="edge30" class="edge"><title>Node23&#45;&gt;Node40</title>
<path fill="none" stroke="midnightblue" d="M41.905,-325.492C45.8722,-284.235 60.7158,-189.315 115,-136.55 118.982,-132.68 123.76,-129.598 128.846,-127.144"/>
<polygon fill="midnightblue" stroke="midnightblue" points="38.4032,-325.368 41.0508,-335.627 45.3785,-325.956 38.4032,-325.368"/>
</g>
<!-- Node41 -->
<g id="node19" class="node"><title>Node41</title>
<g id="a_node19"><a xlink:href="class_linked_list.html#a67c86ff482738c1ab36bb8c764a7f3f7" target="_top" xlink:title="LinkedList::containsR">
<polygon fill="white" stroke="black" points="119.5,-70.05 119.5,-89.05 229.5,-89.05 229.5,-70.05 119.5,-70.05"/>
<text text-anchor="middle" x="174.5" y="-77.05" font-family="Helvetica,sans-Serif" font-size="10.00">LinkedList::containsR</text>
</a>
</g>
</g>
<!-- Node23&#45;&gt;Node41 -->
<g id="edge32" class="edge"><title>Node23&#45;&gt;Node41</title>
<path fill="none" stroke="midnightblue" d="M40.599,-325.77C41.9217,-279.484 51.7365,-163.162 115,-98.55 118.81,-94.6587 123.424,-91.5637 128.37,-89.1023"/>
<polygon fill="midnightblue" stroke="midnightblue" points="37.0964,-325.894 40.4183,-335.955 44.0953,-326.018 37.0964,-325.894"/>
</g>
<!-- Node42 -->
<g id="node20" class="node"><title>Node42</title>
<g id="a_node20"><a xlink:href="class_linked_list.html#ac517f07c7f197202fa085246fb3f07e8" target="_top" xlink:title="LinkedList::insertSorted">
<polygon fill="white" stroke="black" points="115,-32.05 115,-51.05 234,-51.05 234,-32.05 115,-32.05"/>
<text text-anchor="middle" x="174.5" y="-39.05" font-family="Helvetica,sans-Serif" font-size="10.00">LinkedList::insertSorted</text>
</a>
</g>
</g>
<!-- Node23&#45;&gt;Node42 -->
<g id="edge34" class="edge"><title>Node23&#45;&gt;Node42</title>
<path fill="none" stroke="midnightblue" d="M39.6416,-325.896C38.5243,-274.931 42.736,-137.159 115,-60.55 118.664,-56.666 123.128,-53.5745 127.94,-51.1139"/>
<polygon fill="midnightblue" stroke="midnightblue" points="36.1437,-326.023 39.9594,-335.907 43.1402,-325.8 36.1437,-326.023"/>
</g>
<!-- Node43 -->
<g id="node21" class="node"><title>Node43</title>
<g id="a_node21"><a xlink:href="class_linked_list.html#a04e277f98f8e6e5426f19ad780915e00" target="_top" xlink:title="LinkedList::insertionSort">
<polygon fill="white" stroke="black" points="270,-32.05 270,-51.05 392,-51.05 392,-32.05 270,-32.05"/>
<text text-anchor="middle" x="331" y="-39.05" font-family="Helvetica,sans-Serif" font-size="10.00">LinkedList::insertionSort</text>
</a>
</g>
</g>
<!-- Node23&#45;&gt;Node43 -->
<g id="edge37" class="edge"><title>Node23&#45;&gt;Node43</title>
<path fill="none" stroke="midnightblue" d="M41.9227,-325.969C47.016,-261.988 66.6749,-60.9977 115,-22.55 173.06,23.643 269.923,-12.9847 310.833,-31.9527"/>
<polygon fill="midnightblue" stroke="midnightblue" points="38.4325,-325.709 41.1598,-335.947 45.4121,-326.243 38.4325,-325.709"/>
</g>
<!-- Node26 -->
<g id="node4" class="node"><title>Node26</title>
<g id="a_node4"><a xlink:href="main_8cpp.html#ae66f6b31b5ad750f1fe042a706a4e3d4" target="_top" xlink:title="main">
<polygon fill="white" stroke="black" points="428,-317.05 428,-336.05 466,-336.05 466,-317.05 428,-317.05"/>
<text text-anchor="middle" x="447" y="-324.05" font-family="Helvetica,sans-Serif" font-size="10.00">main</text>
</a>
</g>
</g>
<!-- Node25&#45;&gt;Node26 -->
<g id="edge3" class="edge"><title>Node25&#45;&gt;Node26</title>
<path fill="none" stroke="midnightblue" d="M388.12,-596.297C389.496,-595.138 390.795,-593.891 392,-592.55 427.282,-553.299 442.164,-379.081 445.334,-336.14"/>
<polygon fill="midnightblue" stroke="midnightblue" points="385.9,-593.57 379.519,-602.028 389.782,-599.396 385.9,-593.57"/>
</g>
<!-- Node27&#45;&gt;Node26 -->
<g id="edge5" class="edge"><title>Node27&#45;&gt;Node26</title>
<path fill="none" stroke="midnightblue" d="M388.063,-558.246C389.455,-557.101 390.773,-555.871 392,-554.55 422.654,-521.535 440.688,-374.964 444.992,-336.058"/>
<polygon fill="midnightblue" stroke="midnightblue" points="385.848,-555.512 379.395,-563.915 389.68,-561.37 385.848,-555.512"/>
</g>
<!-- Node28&#45;&gt;Node26 -->
<g id="edge7" class="edge"><title>Node28&#45;&gt;Node26</title>
<path fill="none" stroke="midnightblue" d="M387.502,-520.553C389.095,-519.322 390.602,-517.991 392,-516.55 442.875,-464.138 446.474,-367.41 446.247,-336.395"/>
<polygon fill="midnightblue" stroke="midnightblue" points="385.559,-517.641 378.932,-525.907 389.268,-523.577 385.559,-517.641"/>
</g>
<!-- Node29&#45;&gt;Node24 -->
<g id="edge9" class="edge"><title>Node29&#45;&gt;Node24</title>
<path fill="none" stroke="midnightblue" d="M233.748,-656.713C247.354,-658.386 261.798,-660.163 275.245,-661.816"/>
<polygon fill="midnightblue" stroke="midnightblue" points="233.89,-653.204 223.538,-655.458 233.036,-660.152 233.89,-653.204"/>
</g>
<!-- Node30&#45;&gt;Node26 -->
<g id="edge11" class="edge"><title>Node30&#45;&gt;Node26</title>
<path fill="none" stroke="midnightblue" d="M386.758,-482.889C388.614,-481.565 390.372,-480.123 392,-478.55 433.897,-438.082 443.36,-363.031 445.435,-336.309"/>
<polygon fill="midnightblue" stroke="midnightblue" points="384.957,-479.888 378.094,-487.959 388.493,-485.929 384.957,-479.888"/>
</g>
<!-- Node31&#45;&gt;Node26 -->
<g id="edge13" class="edge"><title>Node31&#45;&gt;Node26</title>
<path fill="none" stroke="midnightblue" d="M385.754,-445.201C387.958,-443.793 390.055,-442.247 392,-440.55 425.164,-411.606 439.54,-357.836 444.186,-336.067"/>
<polygon fill="midnightblue" stroke="midnightblue" points="383.986,-442.178 376.814,-449.976 387.283,-448.352 383.986,-442.178"/>
</g>
<!-- Node32&#45;&gt;Node26 -->
<g id="edge15" class="edge"><title>Node32&#45;&gt;Node26</title>
<path fill="none" stroke="midnightblue" d="M383.528,-407.786C386.499,-406.22 389.351,-404.481 392,-402.55 416.46,-384.721 433.999,-352.387 441.677,-336.252"/>
<polygon fill="midnightblue" stroke="midnightblue" points="381.982,-404.644 374.341,-411.983 384.891,-411.011 381.982,-404.644"/>
</g>
<!-- Node33&#45;&gt;Node26 -->
<g id="edge17" class="edge"><title>Node33&#45;&gt;Node26</title>
<path fill="none" stroke="midnightblue" d="M377.693,-370.712C382.608,-368.852 387.466,-366.796 392,-364.55 407.819,-356.713 424.147,-344.554 434.647,-336.108"/>
<polygon fill="midnightblue" stroke="midnightblue" points="376.505,-367.419 368.239,-374.047 378.834,-374.02 376.505,-367.419"/>
</g>
<!-- Node34&#45;&gt;Node26 -->
<g id="edge19" class="edge"><title>Node34&#45;&gt;Node26</title>
<path fill="none" stroke="midnightblue" d="M395.372,-334.988C407.28,-333.003 418.811,-331.081 427.854,-329.574"/>
<polygon fill="midnightblue" stroke="midnightblue" points="394.617,-331.565 385.328,-336.662 395.768,-338.47 394.617,-331.565"/>
</g>
<!-- Node35&#45;&gt;Node26 -->
<g id="edge21" class="edge"><title>Node35&#45;&gt;Node26</title>
<path fill="none" stroke="midnightblue" d="M235.106,-311.737C296.745,-316.066 389.28,-322.566 427.98,-325.284"/>
<polygon fill="midnightblue" stroke="midnightblue" points="235.335,-308.244 225.114,-311.035 234.844,-315.227 235.335,-308.244"/>
</g>
<!-- Node36&#45;&gt;Node26 -->
<g id="edge23" class="edge"><title>Node36&#45;&gt;Node26</title>
<path fill="none" stroke="midnightblue" d="M238.519,-279.103C281.949,-286.195 340.835,-296.82 392,-309.55 404.018,-312.54 417.287,-316.705 427.664,-320.164"/>
<polygon fill="midnightblue" stroke="midnightblue" points="238.814,-275.605 228.384,-277.466 237.698,-282.516 238.814,-275.605"/>
</g>
<!-- Node37&#45;&gt;Node26 -->
<g id="edge25" class="edge"><title>Node37&#45;&gt;Node26</title>
<path fill="none" stroke="midnightblue" d="M234.817,-237.184C279.849,-243.267 342.285,-255.666 392,-280.55 410.281,-289.7 427.56,-306.326 437.449,-316.884"/>
<polygon fill="midnightblue" stroke="midnightblue" points="234.99,-233.677 224.625,-235.875 234.097,-240.62 234.99,-233.677"/>
</g>
<!-- Node38&#45;&gt;Node26 -->
<g id="edge27" class="edge"><title>Node38&#45;&gt;Node26</title>
<path fill="none" stroke="midnightblue" d="M234.377,-193.408C280.986,-196.029 345.719,-206.019 392,-238.55 420.303,-258.444 436.622,-298.359 442.941,-316.799"/>
<polygon fill="midnightblue" stroke="midnightblue" points="234.28,-189.9 224.129,-192.933 233.956,-196.892 234.28,-189.9"/>
</g>
<!-- Node39&#45;&gt;Node26 -->
<g id="edge29" class="edge"><title>Node39&#45;&gt;Node26</title>
<path fill="none" stroke="midnightblue" d="M242.76,-150.817C289.402,-151.096 350.376,-158.994 392,-192.55 432.225,-224.978 442.679,-291.985 445.228,-316.923"/>
<polygon fill="midnightblue" stroke="midnightblue" points="242.719,-147.317 232.738,-150.871 242.757,-154.317 242.719,-147.317"/>
</g>
<!-- Node40&#45;&gt;Node26 -->
<g id="edge31" class="edge"><title>Node40&#45;&gt;Node26</title>
<path fill="none" stroke="midnightblue" d="M237.033,-109.497C284.758,-106.793 349.693,-111.352 392,-147.55 444.534,-192.499 447.031,-286.567 446.388,-316.9"/>
<polygon fill="midnightblue" stroke="midnightblue" points="236.558,-106.021 226.822,-110.2 237.038,-113.005 236.558,-106.021"/>
</g>
<!-- Node41&#45;&gt;Node26 -->
<g id="edge33" class="edge"><title>Node41&#45;&gt;Node26</title>
<path fill="none" stroke="midnightblue" d="M239.711,-69.0382C287.413,-65.0575 351.052,-68.3761 392,-104.55 424.848,-133.569 441.226,-277.931 445.09,-316.863"/>
<polygon fill="midnightblue" stroke="midnightblue" points="239.102,-65.5805 229.483,-70.0222 239.772,-72.5483 239.102,-65.5805"/>
</g>
<!-- Node42&#45;&gt;Node43 -->
<g id="edge35" class="edge"><title>Node42&#45;&gt;Node43</title>
<path fill="none" stroke="midnightblue" d="M244.528,-41.55C252.947,-41.55 261.499,-41.55 269.775,-41.55"/>
<polygon fill="midnightblue" stroke="midnightblue" points="244.351,-38.0501 234.351,-41.55 244.351,-45.0501 244.351,-38.0501"/>
</g>
<!-- Node43&#45;&gt;Node26 -->
<g id="edge36" class="edge"><title>Node43&#45;&gt;Node26</title>
<path fill="none" stroke="midnightblue" d="M380.959,-56.0012C385.093,-58.6681 388.878,-61.8218 392,-65.55 425.199,-105.194 441.589,-274.553 445.215,-316.915"/>
<polygon fill="midnightblue" stroke="midnightblue" points="382.543,-52.8786 372.085,-51.1826 379.203,-59.0303 382.543,-52.8786"/>
</g>
</g>
</svg>
        <g id="navigator" transform="translate(0 0)" fill="#404254">
                <rect fill="#f2f5e9" fill-opacity="0.5" stroke="#606060" stroke-width=".5" x="0" y="0" width="60" height="60"/>
                <use id="zoomplus" xlink:href="#zoomPlus" x="17" y="9" onmousedown="handleZoom(evt,'in')"/>
                <use id="zoomminus" xlink:href="#zoomMin" x="42" y="9" onmousedown="handleZoom(evt,'out')"/>
                <use id="reset" xlink:href="#resetDef" x="30" y="36" onmousedown="handleReset()"/>
                <g id="arrowUp" xlink:href="#dirArrow" transform="translate(30 24)" onmousedown="handlePan(0,-1)">
                  <use xlink:href="#rim" fill="#404040">
                        <set attributeName="fill" to="#808080" begin="arrowUp.mouseover" end="arrowUp.mouseout"/>
                  </use>
                  <path fill="none" stroke="white" stroke-width="1.5" d="M0,-3.0v7 M-2.5,-0.5L0,-3.0L2.5,-0.5"/>
                </g>
                <g id="arrowRight" xlink:href="#dirArrow" transform="rotate(90) translate(36 -43)" onmousedown="handlePan(1,0)">
                  <use xlink:href="#rim" fill="#404040">
                        <set attributeName="fill" to="#808080" begin="arrowRight.mouseover" end="arrowRight.mouseout"/>
                  </use>
                  <path fill="none" stroke="white" stroke-width="1.5" d="M0,-3.0v7 M-2.5,-0.5L0,-3.0L2.5,-0.5"/>
                </g>
                <g id="arrowDown" xlink:href="#dirArrow" transform="rotate(180) translate(-30 -48)" onmousedown="handlePan(0,1)">
                  <use xlink:href="#rim" fill="#404040">
                        <set attributeName="fill" to="#808080" begin="arrowDown.mouseover" end="arrowDown.mouseout"/>
                  </use>
                  <path fill="none" stroke="white" stroke-width="1.5" d="M0,-3.0v7 M-2.5,-0.5L0,-3.0L2.5,-0.5"/>
                </g>
                <g id="arrowLeft" xlink:href="#dirArrow" transform="rotate(270) translate(-36 17)" onmousedown="handlePan(-1,0)">
                  <use xlink:href="#rim" fill="#404040">
                        <set attributeName="fill" to="#808080" begin="arrowLeft.mouseover" end="arrowLeft.mouseout"/>
                  </use>
                  <path fill="none" stroke="white" stroke-width="1.5" d="M0,-3.0v7 M-2.5,-0.5L0,-3.0L2.5,-0.5"/>
                </g>
        </g>
        <svg viewBox="0 0 15 15" width="100%" height="30px" preserveAspectRatio="xMaxYMin meet">
         <g id="arrow_out" transform="scale(0.3 0.3)">
          <a xlink:href="class_node_ae36639ff267d63e058ce309fde5a9913_icgraph_org.svg" target="_base">
           <rect id="button" ry="5" rx="5" y="6" x="6" height="38" width="38"
                fill="#f2f5e9" fill-opacity="0.5" stroke="#606060" stroke-width="1.0"/>
           <path id="arrow"
             d="M 11.500037,31.436501 C 11.940474,20.09759 22.043105,11.32322 32.158766,21.979434 L 37.068811,17.246167 C 37.068811,17.246167 37.088388,32 37.088388,32 L 22.160133,31.978069 C 22.160133,31.978069 26.997745,27.140456 26.997745,27.140456 C 18.528582,18.264221 13.291696,25.230495 11.500037,31.436501 z"
             style="fill:#404040;"/>
          </a>
         </g>
        </svg>
</svg>
