<?xml version="1.0" encoding="UTF-8" standalone="no"?>
<!DOCTYPE svg PUBLIC "-//W3C//DTD SVG 1.1//EN"
 "http://www.w3.org/Graphics/SVG/1.1/DTD/svg11.dtd">
<!-- Generated by graphviz version 2.38.0 (20140413.2041)
 -->
<!-- Title: LinkedList::insertBefore Pages: 1 -->
<svg width="242pt" height="66pt"
 viewBox="0.00 0.00 242.00 66.00" xmlns="http://www.w3.org/2000/svg" xmlns:xlink="http://www.w3.org/1999/xlink">
<g id="graph0" class="graph" transform="scale(1 1) rotate(0) translate(4 62)">
<title>LinkedList::insertBefore</title>
<polygon fill="white" stroke="none" points="-4,4 -4,-62 238,-62 238,4 -4,4"/>
<!-- Node76 -->
<g id="node1" class="node"><title>Node76</title>
<polygon fill="#bfbfbf" stroke="black" points="0,-19.5 0,-38.5 119,-38.5 119,-19.5 0,-19.5"/>
<text text-anchor="middle" x="59.5" y="-26.5" font-family="Helvetica,sans-Serif" font-size="10.00">LinkedList::insertBefore</text>
</g>
<!-- Node77 -->
<g id="node2" class="node"><title>Node77</title>
<g id="a_node2"><a xlink:href="class_node.html#ae36639ff267d63e058ce309fde5a9913" target="_top" xlink:title="Node::getNext">
<polygon fill="white" stroke="black" points="155,-38.5 155,-57.5 234,-57.5 234,-38.5 155,-38.5"/>
<text text-anchor="middle" x="194.5" y="-45.5" font-family="Helvetica,sans-Serif" font-size="10.00">Node::getNext</text>
</a>
</g>
</g>
<!-- Node76&#45;&gt;Node77 -->
<g id="edge1" class="edge"><title>Node76&#45;&gt;Node77</title>
<path fill="none" stroke="midnightblue" d="M119.223,-37.389C127.831,-38.6187 136.616,-39.8737 144.989,-41.0698"/>
<polygon fill="midnightblue" stroke="midnightblue" points="144.564,-44.5446 154.958,-42.494 145.554,-37.6149 144.564,-44.5446"/>
</g>
<!-- Node78 -->
<g id="node3" class="node"><title>Node78</title>
<g id="a_node3"><a xlink:href="class_node.html#a89b12aca90acdf6a8a547cbdab9b80a5" target="_top" xlink:title="Node::setNext">
<polygon fill="white" stroke="black" points="155,-0.5 155,-19.5 234,-19.5 234,-0.5 155,-0.5"/>
<text text-anchor="middle" x="194.5" y="-7.5" font-family="Helvetica,sans-Serif" font-size="10.00">Node::setNext</text>
</a>
</g>
</g>
<!-- Node76&#45;&gt;Node78 -->
<g id="edge2" class="edge"><title>Node76&#45;&gt;Node78</title>
<path fill="none" stroke="midnightblue" d="M119.223,-20.611C127.831,-19.3813 136.616,-18.1263 144.989,-16.9302"/>
<polygon fill="midnightblue" stroke="midnightblue" points="145.554,-20.3851 154.958,-15.506 144.564,-13.4554 145.554,-20.3851"/>
</g>
</g>
</svg>
