<?xml version="1.0" encoding="UTF-8" standalone="no"?>
<!DOCTYPE svg PUBLIC "-//W3C//DTD SVG 1.1//EN"
 "http://www.w3.org/Graphics/SVG/1.1/DTD/svg11.dtd">
<!-- Generated by graphviz version 2.38.0 (20140413.2041)
 -->
<!-- Title: LinkedList::LinkedList Pages: 1 -->
<svg width="368pt" height="104pt"
 viewBox="0.00 0.00 368.00 104.00" xmlns="http://www.w3.org/2000/svg" xmlns:xlink="http://www.w3.org/1999/xlink">
<g id="graph0" class="graph" transform="scale(1 1) rotate(0) translate(4 100)">
<title>LinkedList::LinkedList</title>
<polygon fill="white" stroke="none" points="-4,4 -4,-100 364,-100 364,4 -4,4"/>
<!-- Node4 -->
<g id="node1" class="node"><title>Node4</title>
<polygon fill="#bfbfbf" stroke="black" points="0,-38.5 0,-57.5 111,-57.5 111,-38.5 0,-38.5"/>
<text text-anchor="middle" x="55.5" y="-45.5" font-family="Helvetica,sans-Serif" font-size="10.00">LinkedList::LinkedList</text>
</g>
<!-- Node5 -->
<g id="node2" class="node"><title>Node5</title>
<g id="a_node2"><a xlink:href="class_linked_list.html#a2e67fa8d36b83febafbd5f3801ec43db" target="_top" xlink:title="LinkedList::append">
<polygon fill="white" stroke="black" points="147,-38.5 147,-57.5 245,-57.5 245,-38.5 147,-38.5"/>
<text text-anchor="middle" x="196" y="-45.5" font-family="Helvetica,sans-Serif" font-size="10.00">LinkedList::append</text>
</a>
</g>
</g>
<!-- Node4&#45;&gt;Node5 -->
<g id="edge1" class="edge"><title>Node4&#45;&gt;Node5</title>
<path fill="none" stroke="midnightblue" d="M111.239,-48C119.625,-48 128.308,-48 136.766,-48"/>
<polygon fill="midnightblue" stroke="midnightblue" points="136.936,-51.5001 146.936,-48 136.936,-44.5001 136.936,-51.5001"/>
</g>
<!-- Node6 -->
<g id="node3" class="node"><title>Node6</title>
<g id="a_node3"><a xlink:href="class_node.html#ae36639ff267d63e058ce309fde5a9913" target="_top" xlink:title="Node::getNext">
<polygon fill="white" stroke="black" points="281,-76.5 281,-95.5 360,-95.5 360,-76.5 281,-76.5"/>
<text text-anchor="middle" x="320.5" y="-83.5" font-family="Helvetica,sans-Serif" font-size="10.00">Node::getNext</text>
</a>
</g>
</g>
<!-- Node4&#45;&gt;Node6 -->
<g id="edge5" class="edge"><title>Node4&#45;&gt;Node6</title>
<path fill="none" stroke="midnightblue" d="M97.7921,-57.5519C113.178,-60.8775 130.829,-64.4182 147,-67 188.523,-73.6294 236.04,-78.6775 270.675,-81.8981"/>
<polygon fill="midnightblue" stroke="midnightblue" points="270.713,-85.416 280.989,-82.8387 271.348,-78.4449 270.713,-85.416"/>
</g>
<!-- Node8 -->
<g id="node5" class="node"><title>Node8</title>
<g id="a_node5"><a xlink:href="class_node.html#aca98907146d5d0687f48bf8be9df9b7d" target="_top" xlink:title="Node::getData">
<polygon fill="white" stroke="black" points="156.5,-0.5 156.5,-19.5 235.5,-19.5 235.5,-0.5 156.5,-0.5"/>
<text text-anchor="middle" x="196" y="-7.5" font-family="Helvetica,sans-Serif" font-size="10.00">Node::getData</text>
</a>
</g>
</g>
<!-- Node4&#45;&gt;Node8 -->
<g id="edge4" class="edge"><title>Node4&#45;&gt;Node8</title>
<path fill="none" stroke="midnightblue" d="M91.4494,-38.411C109.328,-33.5056 131.288,-27.4804 150.378,-22.2429"/>
<polygon fill="midnightblue" stroke="midnightblue" points="151.344,-25.6072 160.062,-19.5859 149.492,-18.8566 151.344,-25.6072"/>
</g>
<!-- Node5&#45;&gt;Node6 -->
<g id="edge2" class="edge"><title>Node5&#45;&gt;Node6</title>
<path fill="none" stroke="midnightblue" d="M227.912,-57.589C243.29,-62.3594 262.082,-68.1888 278.633,-73.3229"/>
<polygon fill="midnightblue" stroke="midnightblue" points="278.01,-76.7941 288.598,-76.4141 280.084,-70.1084 278.01,-76.7941"/>
</g>
<!-- Node7 -->
<g id="node4" class="node"><title>Node7</title>
<g id="a_node4"><a xlink:href="class_node.html#a89b12aca90acdf6a8a547cbdab9b80a5" target="_top" xlink:title="Node::setNext">
<polygon fill="white" stroke="black" points="281,-38.5 281,-57.5 360,-57.5 360,-38.5 281,-38.5"/>
<text text-anchor="middle" x="320.5" y="-45.5" font-family="Helvetica,sans-Serif" font-size="10.00">Node::setNext</text>
</a>
</g>
</g>
<!-- Node5&#45;&gt;Node7 -->
<g id="edge3" class="edge"><title>Node5&#45;&gt;Node7</title>
<path fill="none" stroke="midnightblue" d="M245.064,-48C253.451,-48 262.184,-48 270.594,-48"/>
<polygon fill="midnightblue" stroke="midnightblue" points="270.646,-51.5001 280.646,-48 270.646,-44.5001 270.646,-51.5001"/>
</g>
</g>
</svg>
