<?xml version="1.0" encoding="UTF-8" standalone="no"?>
<!DOCTYPE svg PUBLIC "-//W3C//DTD SVG 1.1//EN"
 "http://www.w3.org/Graphics/SVG/1.1/DTD/svg11.dtd">
<!-- Generated by graphviz version 2.38.0 (20140413.2041)
 -->
<!-- Title: LinkedList::insertionSort Pages: 1 -->
<svg width="400pt" height="123pt"
 viewBox="0.00 0.00 400.00 123.00" xmlns="http://www.w3.org/2000/svg" xmlns:xlink="http://www.w3.org/1999/xlink">
<g id="graph0" class="graph" transform="scale(1 1) rotate(0) translate(4 119)">
<title>LinkedList::insertionSort</title>
<polygon fill="white" stroke="none" points="-4,4 -4,-119 396,-119 396,4 -4,4"/>
<!-- Node89 -->
<g id="node1" class="node"><title>Node89</title>
<polygon fill="#bfbfbf" stroke="black" points="0,-48.5 0,-67.5 122,-67.5 122,-48.5 0,-48.5"/>
<text text-anchor="middle" x="61" y="-55.5" font-family="Helvetica,sans-Serif" font-size="10.00">LinkedList::insertionSort</text>
</g>
<!-- Node90 -->
<g id="node2" class="node"><title>Node90</title>
<g id="a_node2"><a xlink:href="class_node.html#ae36639ff267d63e058ce309fde5a9913" target="_top" xlink:title="Node::getNext">
<polygon fill="white" stroke="black" points="313,-95.5 313,-114.5 392,-114.5 392,-95.5 313,-95.5"/>
<text text-anchor="middle" x="352.5" y="-102.5" font-family="Helvetica,sans-Serif" font-size="10.00">Node::getNext</text>
</a>
</g>
</g>
<!-- Node89&#45;&gt;Node90 -->
<g id="edge1" class="edge"><title>Node89&#45;&gt;Node90</title>
<path fill="none" stroke="midnightblue" d="M80.902,-67.6533C99.8514,-76.8031 130.136,-90.0116 158,-96 206.442,-106.411 263.218,-107.819 302.689,-107.139"/>
<polygon fill="midnightblue" stroke="midnightblue" points="302.919,-110.635 312.838,-106.912 302.762,-103.637 302.919,-110.635"/>
</g>
<!-- Node91 -->
<g id="node3" class="node"><title>Node91</title>
<g id="a_node3"><a xlink:href="class_linked_list.html#ac517f07c7f197202fa085246fb3f07e8" target="_top" xlink:title="LinkedList::insertSorted">
<polygon fill="white" stroke="black" points="158,-67.5 158,-86.5 277,-86.5 277,-67.5 158,-67.5"/>
<text text-anchor="middle" x="217.5" y="-74.5" font-family="Helvetica,sans-Serif" font-size="10.00">LinkedList::insertSorted</text>
</a>
</g>
</g>
<!-- Node89&#45;&gt;Node91 -->
<g id="edge2" class="edge"><title>Node89&#45;&gt;Node91</title>
<path fill="none" stroke="midnightblue" d="M122.176,-65.4003C130.58,-66.4338 139.268,-67.5022 147.814,-68.5532"/>
<polygon fill="midnightblue" stroke="midnightblue" points="147.404,-72.029 157.756,-69.7758 148.258,-65.0814 147.404,-72.029"/>
</g>
<!-- Node92 -->
<g id="node4" class="node"><title>Node92</title>
<g id="a_node4"><a xlink:href="class_node.html#a89b12aca90acdf6a8a547cbdab9b80a5" target="_top" xlink:title="Node::setNext">
<polygon fill="white" stroke="black" points="313,-38.5 313,-57.5 392,-57.5 392,-38.5 313,-38.5"/>
<text text-anchor="middle" x="352.5" y="-45.5" font-family="Helvetica,sans-Serif" font-size="10.00">Node::setNext</text>
</a>
</g>
</g>
<!-- Node89&#45;&gt;Node92 -->
<g id="edge7" class="edge"><title>Node89&#45;&gt;Node92</title>
<path fill="none" stroke="midnightblue" d="M122.336,-55.9158C175.865,-54.0668 253.067,-51.4001 302.765,-49.6834"/>
<polygon fill="midnightblue" stroke="midnightblue" points="303.061,-53.1754 312.934,-49.3322 302.819,-46.1796 303.061,-53.1754"/>
</g>
<!-- Node93 -->
<g id="node5" class="node"><title>Node93</title>
<g id="a_node5"><a xlink:href="class_node.html#aca98907146d5d0687f48bf8be9df9b7d" target="_top" xlink:title="Node::getData">
<polygon fill="white" stroke="black" points="313,-0.5 313,-19.5 392,-19.5 392,-0.5 313,-0.5"/>
<text text-anchor="middle" x="352.5" y="-7.5" font-family="Helvetica,sans-Serif" font-size="10.00">Node::getData</text>
</a>
</g>
</g>
<!-- Node89&#45;&gt;Node93 -->
<g id="edge6" class="edge"><title>Node89&#45;&gt;Node93</title>
<path fill="none" stroke="midnightblue" d="M119.542,-48.4594C173.073,-39.5837 251.973,-26.5018 302.552,-18.1158"/>
<polygon fill="midnightblue" stroke="midnightblue" points="303.291,-21.541 312.584,-16.4524 302.146,-14.6353 303.291,-21.541"/>
</g>
<!-- Node91&#45;&gt;Node90 -->
<g id="edge5" class="edge"><title>Node91&#45;&gt;Node90</title>
<path fill="none" stroke="midnightblue" d="M263.899,-86.5577C276.487,-89.2079 290.201,-92.0949 302.961,-94.7813"/>
<polygon fill="midnightblue" stroke="midnightblue" points="302.443,-98.2489 312.95,-96.8842 303.886,-91.3991 302.443,-98.2489"/>
</g>
<!-- Node91&#45;&gt;Node92 -->
<g id="edge3" class="edge"><title>Node91&#45;&gt;Node92</title>
<path fill="none" stroke="midnightblue" d="M262.418,-67.4239C275.441,-64.5842 289.776,-61.4585 303.069,-58.5601"/>
<polygon fill="midnightblue" stroke="midnightblue" points="303.967,-61.9466 312.992,-56.3965 302.476,-55.1073 303.967,-61.9466"/>
</g>
<!-- Node91&#45;&gt;Node93 -->
<g id="edge4" class="edge"><title>Node91&#45;&gt;Node93</title>
<path fill="none" stroke="midnightblue" d="M237.294,-67.3735C256.341,-57.6363 286.674,-42.1817 313,-29 316.162,-27.417 319.474,-25.7682 322.771,-24.1324"/>
<polygon fill="midnightblue" stroke="midnightblue" points="324.48,-27.1922 331.892,-19.6222 321.377,-20.9175 324.48,-27.1922"/>
</g>
</g>
</svg>
