<?xml version="1.0" encoding="UTF-8" standalone="no"?>
<!DOCTYPE svg PUBLIC "-//W3C//DTD SVG 1.1//EN"
 "http://www.w3.org/Graphics/SVG/1.1/DTD/svg11.dtd">
<!-- Generated by graphviz version 2.38.0 (20140413.2041)
 -->
<!-- Title: LinkedList::deleteNode Pages: 1 -->
<svg width="239pt" height="66pt"
 viewBox="0.00 0.00 239.00 66.00" xmlns="http://www.w3.org/2000/svg" xmlns:xlink="http://www.w3.org/1999/xlink">
<g id="graph0" class="graph" transform="scale(1 1) rotate(0) translate(4 62)">
<title>LinkedList::deleteNode</title>
<polygon fill="white" stroke="none" points="-4,4 -4,-62 235,-62 235,4 -4,4"/>
<!-- Node43 -->
<g id="node1" class="node"><title>Node43</title>
<polygon fill="#bfbfbf" stroke="black" points="0,-19.5 0,-38.5 116,-38.5 116,-19.5 0,-19.5"/>
<text text-anchor="middle" x="58" y="-26.5" font-family="Helvetica,sans-Serif" font-size="10.00">LinkedList::deleteNode</text>
</g>
<!-- Node44 -->
<g id="node2" class="node"><title>Node44</title>
<g id="a_node2"><a xlink:href="class_node.html#ae36639ff267d63e058ce309fde5a9913" target="_top" xlink:title="Node::getNext">
<polygon fill="white" stroke="black" points="152,-38.5 152,-57.5 231,-57.5 231,-38.5 152,-38.5"/>
<text text-anchor="middle" x="191.5" y="-45.5" font-family="Helvetica,sans-Serif" font-size="10.00">Node::getNext</text>
</a>
</g>
</g>
<!-- Node43&#45;&gt;Node44 -->
<g id="edge1" class="edge"><title>Node43&#45;&gt;Node44</title>
<path fill="none" stroke="midnightblue" d="M116.295,-37.2784C124.857,-38.5155 133.613,-39.7806 141.97,-40.9881"/>
<polygon fill="midnightblue" stroke="midnightblue" points="141.528,-44.4605 151.926,-42.4266 142.529,-37.5324 141.528,-44.4605"/>
</g>
<!-- Node45 -->
<g id="node3" class="node"><title>Node45</title>
<g id="a_node3"><a xlink:href="class_node.html#a89b12aca90acdf6a8a547cbdab9b80a5" target="_top" xlink:title="Node::setNext">
<polygon fill="white" stroke="black" points="152,-0.5 152,-19.5 231,-19.5 231,-0.5 152,-0.5"/>
<text text-anchor="middle" x="191.5" y="-7.5" font-family="Helvetica,sans-Serif" font-size="10.00">Node::setNext</text>
</a>
</g>
</g>
<!-- Node43&#45;&gt;Node45 -->
<g id="edge2" class="edge"><title>Node43&#45;&gt;Node45</title>
<path fill="none" stroke="midnightblue" d="M116.295,-20.7216C124.857,-19.4845 133.613,-18.2194 141.97,-17.0119"/>
<polygon fill="midnightblue" stroke="midnightblue" points="142.529,-20.4676 151.926,-15.5734 141.528,-13.5395 142.529,-20.4676"/>
</g>
</g>
</svg>
