<?xml version="1.0" encoding="UTF-8" standalone="no"?>
<!DOCTYPE svg PUBLIC "-//W3C//DTD SVG 1.1//EN"
 "http://www.w3.org/Graphics/SVG/1.1/DTD/svg11.dtd">
<!-- Generated by graphviz version 2.38.0 (20140413.2041)
 -->
<!-- Title: LinkedList::deleteBeg Pages: 1 -->
<svg width="233pt" height="66pt"
 viewBox="0.00 0.00 233.00 66.00" xmlns="http://www.w3.org/2000/svg" xmlns:xlink="http://www.w3.org/1999/xlink">
<g id="graph0" class="graph" transform="scale(1 1) rotate(0) translate(4 62)">
<title>LinkedList::deleteBeg</title>
<polygon fill="white" stroke="none" points="-4,4 -4,-62 229,-62 229,4 -4,4"/>
<!-- Node33 -->
<g id="node1" class="node"><title>Node33</title>
<polygon fill="#bfbfbf" stroke="black" points="0,-19.5 0,-38.5 110,-38.5 110,-19.5 0,-19.5"/>
<text text-anchor="middle" x="55" y="-26.5" font-family="Helvetica,sans-Serif" font-size="10.00">LinkedList::deleteBeg</text>
</g>
<!-- Node34 -->
<g id="node2" class="node"><title>Node34</title>
<g id="a_node2"><a xlink:href="class_node.html#ae36639ff267d63e058ce309fde5a9913" target="_top" xlink:title="Node::getNext">
<polygon fill="white" stroke="black" points="146,-38.5 146,-57.5 225,-57.5 225,-38.5 146,-38.5"/>
<text text-anchor="middle" x="185.5" y="-45.5" font-family="Helvetica,sans-Serif" font-size="10.00">Node::getNext</text>
</a>
</g>
</g>
<!-- Node33&#45;&gt;Node34 -->
<g id="edge1" class="edge"><title>Node33&#45;&gt;Node34</title>
<path fill="none" stroke="midnightblue" d="M110.123,-37.0026C118.608,-38.2572 127.334,-39.5475 135.691,-40.783"/>
<polygon fill="midnightblue" stroke="midnightblue" points="135.254,-44.2565 145.658,-42.2569 136.278,-37.3317 135.254,-44.2565"/>
</g>
<!-- Node35 -->
<g id="node3" class="node"><title>Node35</title>
<g id="a_node3"><a xlink:href="class_node.html#a89b12aca90acdf6a8a547cbdab9b80a5" target="_top" xlink:title="Node::setNext">
<polygon fill="white" stroke="black" points="146,-0.5 146,-19.5 225,-19.5 225,-0.5 146,-0.5"/>
<text text-anchor="middle" x="185.5" y="-7.5" font-family="Helvetica,sans-Serif" font-size="10.00">Node::setNext</text>
</a>
</g>
</g>
<!-- Node33&#45;&gt;Node35 -->
<g id="edge2" class="edge"><title>Node33&#45;&gt;Node35</title>
<path fill="none" stroke="midnightblue" d="M110.123,-20.9974C118.608,-19.7428 127.334,-18.4525 135.691,-17.217"/>
<polygon fill="midnightblue" stroke="midnightblue" points="136.278,-20.6683 145.658,-15.7431 135.254,-13.7435 136.278,-20.6683"/>
</g>
</g>
</svg>
