<?xml version="1.0" encoding="UTF-8" standalone="no"?>
<!DOCTYPE svg PUBLIC "-//W3C//DTD SVG 1.1//EN"
 "http://www.w3.org/Graphics/SVG/1.1/DTD/svg11.dtd">
<!-- Generated by graphviz version 2.38.0 (20140413.2041)
 -->
<!-- Title: LinkedList::contains Pages: 1 -->
<svg width="227pt" height="66pt"
 viewBox="0.00 0.00 227.00 66.00" xmlns="http://www.w3.org/2000/svg" xmlns:xlink="http://www.w3.org/1999/xlink">
<g id="graph0" class="graph" transform="scale(1 1) rotate(0) translate(4 62)">
<title>LinkedList::contains</title>
<polygon fill="white" stroke="none" points="-4,4 -4,-62 223,-62 223,4 -4,4"/>
<!-- Node17 -->
<g id="node1" class="node"><title>Node17</title>
<polygon fill="#bfbfbf" stroke="black" points="0,-19.5 0,-38.5 104,-38.5 104,-19.5 0,-19.5"/>
<text text-anchor="middle" x="52" y="-26.5" font-family="Helvetica,sans-Serif" font-size="10.00">LinkedList::contains</text>
</g>
<!-- Node18 -->
<g id="node2" class="node"><title>Node18</title>
<g id="a_node2"><a xlink:href="class_node.html#aca98907146d5d0687f48bf8be9df9b7d" target="_top" xlink:title="Node::getData">
<polygon fill="white" stroke="black" points="140,-38.5 140,-57.5 219,-57.5 219,-38.5 140,-38.5"/>
<text text-anchor="middle" x="179.5" y="-45.5" font-family="Helvetica,sans-Serif" font-size="10.00">Node::getData</text>
</a>
</g>
</g>
<!-- Node17&#45;&gt;Node18 -->
<g id="edge1" class="edge"><title>Node17&#45;&gt;Node18</title>
<path fill="none" stroke="midnightblue" d="M104.046,-36.728C112.537,-38.0136 121.325,-39.344 129.757,-40.6205"/>
<polygon fill="midnightblue" stroke="midnightblue" points="129.411,-44.1079 139.822,-42.1443 130.458,-37.1868 129.411,-44.1079"/>
</g>
<!-- Node19 -->
<g id="node3" class="node"><title>Node19</title>
<g id="a_node3"><a xlink:href="class_node.html#ae36639ff267d63e058ce309fde5a9913" target="_top" xlink:title="Node::getNext">
<polygon fill="white" stroke="black" points="140,-0.5 140,-19.5 219,-19.5 219,-0.5 140,-0.5"/>
<text text-anchor="middle" x="179.5" y="-7.5" font-family="Helvetica,sans-Serif" font-size="10.00">Node::getNext</text>
</a>
</g>
</g>
<!-- Node17&#45;&gt;Node19 -->
<g id="edge2" class="edge"><title>Node17&#45;&gt;Node19</title>
<path fill="none" stroke="midnightblue" d="M104.046,-21.272C112.537,-19.9864 121.325,-18.656 129.757,-17.3795"/>
<polygon fill="midnightblue" stroke="midnightblue" points="130.458,-20.8132 139.822,-15.8557 129.411,-13.8921 130.458,-20.8132"/>
</g>
</g>
</svg>
