<?xml version="1.0" encoding="UTF-8" standalone="no"?>
<!DOCTYPE svg PUBLIC "-//W3C//DTD SVG 1.1//EN"
 "http://www.w3.org/Graphics/SVG/1.1/DTD/svg11.dtd">
<!-- Generated by graphviz version 2.38.0 (20140413.2041)
 -->
<!-- Title: D:/Git/DataStructures/LinkedList/main.cpp Pages: 1 -->
<svg width="202pt" height="151pt"
 viewBox="0.00 0.00 202.00 151.00" xmlns="http://www.w3.org/2000/svg" xmlns:xlink="http://www.w3.org/1999/xlink">
<g id="graph0" class="graph" transform="scale(1 1) rotate(0) translate(4 147)">
<title>D:/Git/DataStructures/LinkedList/main.cpp</title>
<polygon fill="white" stroke="none" points="-4,4 -4,-147 198,-147 198,4 -4,4"/>
<!-- Node0 -->
<g id="node1" class="node"><title>Node0</title>
<polygon fill="#bfbfbf" stroke="black" points="5,-112.5 5,-142.5 115,-142.5 115,-112.5 5,-112.5"/>
<text text-anchor="start" x="13" y="-130.5" font-family="Helvetica,sans-Serif" font-size="10.00">D:/Git/DataStructures</text>
<text text-anchor="middle" x="60" y="-119.5" font-family="Helvetica,sans-Serif" font-size="10.00">/LinkedList/main.cpp</text>
</g>
<!-- Node1 -->
<g id="node2" class="node"><title>Node1</title>
<polygon fill="white" stroke="#bfbfbf" points="0,-0.5 0,-19.5 54,-19.5 54,-0.5 0,-0.5"/>
<text text-anchor="middle" x="27" y="-7.5" font-family="Helvetica,sans-Serif" font-size="10.00">iostream</text>
</g>
<!-- Node0&#45;&gt;Node1 -->
<g id="edge1" class="edge"><title>Node0&#45;&gt;Node1</title>
<path fill="none" stroke="midnightblue" d="M55.9536,-112.337C50.0077,-91.5271 38.9038,-52.6632 32.3095,-29.5834"/>
<polygon fill="midnightblue" stroke="midnightblue" points="35.5896,-28.3231 29.477,-19.6695 28.8589,-30.2462 35.5896,-28.3231"/>
</g>
<!-- Node2 -->
<g id="node3" class="node"><title>Node2</title>
<g id="a_node3"><a xlink:href="_list_8hpp.html" target="_top" xlink:title="List.hpp">
<polygon fill="white" stroke="black" points="65.5,-56.5 65.5,-75.5 116.5,-75.5 116.5,-56.5 65.5,-56.5"/>
<text text-anchor="middle" x="91" y="-63.5" font-family="Helvetica,sans-Serif" font-size="10.00">List.hpp</text>
</a>
</g>
</g>
<!-- Node0&#45;&gt;Node2 -->
<g id="edge2" class="edge"><title>Node0&#45;&gt;Node2</title>
<path fill="none" stroke="midnightblue" d="M67.3466,-112.399C71.6655,-104.11 77.1651,-93.5542 81.7742,-84.7077"/>
<polygon fill="midnightblue" stroke="midnightblue" points="84.9726,-86.1435 86.4892,-75.6578 78.7646,-82.9091 84.9726,-86.1435"/>
</g>
<!-- Node2&#45;&gt;Node1 -->
<g id="edge3" class="edge"><title>Node2&#45;&gt;Node1</title>
<path fill="none" stroke="midnightblue" d="M80.7173,-56.324C71.1637,-48.2631 56.7203,-36.0765 45.2157,-26.3695"/>
<polygon fill="midnightblue" stroke="midnightblue" points="47.3698,-23.6076 37.4698,-19.8339 42.8557,-28.9577 47.3698,-23.6076"/>
</g>
<!-- Node3 -->
<g id="node4" class="node"><title>Node3</title>
<polygon fill="white" stroke="#bfbfbf" points="72.5,-0.5 72.5,-19.5 117.5,-19.5 117.5,-0.5 72.5,-0.5"/>
<text text-anchor="middle" x="95" y="-7.5" font-family="Helvetica,sans-Serif" font-size="10.00">climits</text>
</g>
<!-- Node2&#45;&gt;Node3 -->
<g id="edge4" class="edge"><title>Node2&#45;&gt;Node3</title>
<path fill="none" stroke="midnightblue" d="M91.6605,-56.083C92.1848,-49.0059 92.9362,-38.8611 93.5936,-29.9865"/>
<polygon fill="midnightblue" stroke="midnightblue" points="97.1034,-29.9823 94.3518,-19.7511 90.1225,-29.4652 97.1034,-29.9823"/>
</g>
<!-- Node4 -->
<g id="node5" class="node"><title>Node4</title>
<g id="a_node5"><a xlink:href="_node_8hpp.html" target="_top" xlink:title="Node.hpp">
<polygon fill="white" stroke="black" points="136,-0.5 136,-19.5 194,-19.5 194,-0.5 136,-0.5"/>
<text text-anchor="middle" x="165" y="-7.5" font-family="Helvetica,sans-Serif" font-size="10.00">Node.hpp</text>
</a>
</g>
</g>
<!-- Node2&#45;&gt;Node4 -->
<g id="edge5" class="edge"><title>Node2&#45;&gt;Node4</title>
<path fill="none" stroke="midnightblue" d="M102.889,-56.324C114.15,-48.1066 131.287,-35.6017 144.709,-25.8069"/>
<polygon fill="midnightblue" stroke="midnightblue" points="146.88,-28.5559 152.894,-19.8339 142.753,-22.9014 146.88,-28.5559"/>
</g>
</g>
</svg>
