<?xml version="1.0" encoding="UTF-8" standalone="no"?>
<!DOCTYPE svg PUBLIC "-//W3C//DTD SVG 1.1//EN"
 "http://www.w3.org/Graphics/SVG/1.1/DTD/svg11.dtd">
<!-- Generated by graphviz version 2.38.0 (20140413.2041)
 -->
<!-- Title: main Pages: 1 -->
<svg width="474pt" height="862pt"
 viewBox="0.00 0.00 474.00 862.00" xmlns="http://www.w3.org/2000/svg" xmlns:xlink="http://www.w3.org/1999/xlink">
<g id="graph0" class="graph" transform="scale(1 1) rotate(0) translate(4 858)">
<title>main</title>
<polygon fill="white" stroke="none" points="-4,4 -4,-858 470,-858 470,4 -4,4"/>
<!-- Node0 -->
<g id="node1" class="node"><title>Node0</title>
<polygon fill="#bfbfbf" stroke="black" points="0,-454.5 0,-473.5 38,-473.5 38,-454.5 0,-454.5"/>
<text text-anchor="middle" x="19" y="-461.5" font-family="Helvetica,sans-Serif" font-size="10.00">main</text>
</g>
<!-- Node1 -->
<g id="node2" class="node"><title>Node1</title>
<g id="a_node2"><a xlink:href="class_linked_list.html#a583e4bb42bb128feddb57767863fd28e" target="_top" xlink:title="LinkedList::insertBeg">
<polygon fill="white" stroke="black" points="81,-834.5 81,-853.5 189,-853.5 189,-834.5 81,-834.5"/>
<text text-anchor="middle" x="135" y="-841.5" font-family="Helvetica,sans-Serif" font-size="10.00">LinkedList::insertBeg</text>
</a>
</g>
</g>
<!-- Node0&#45;&gt;Node1 -->
<g id="edge1" class="edge"><title>Node0&#45;&gt;Node1</title>
<path fill="none" stroke="midnightblue" d="M20.1993,-473.504C21.4449,-524.353 29.6257,-764.037 74,-820 76.9015,-823.659 80.4457,-826.763 84.3469,-829.395"/>
<polygon fill="midnightblue" stroke="midnightblue" points="82.9118,-832.603 93.3467,-834.437 86.333,-826.496 82.9118,-832.603"/>
</g>
<!-- Node2 -->
<g id="node3" class="node"><title>Node2</title>
<g id="a_node3"><a xlink:href="class_linked_list.html#a8b87744316967b16f272be10cd6718ed" target="_top" xlink:title="LinkedList::insertEnd">
<polygon fill="white" stroke="black" points="237.5,-682.5 237.5,-701.5 345.5,-701.5 345.5,-682.5 237.5,-682.5"/>
<text text-anchor="middle" x="291.5" y="-689.5" font-family="Helvetica,sans-Serif" font-size="10.00">LinkedList::insertEnd</text>
</a>
</g>
</g>
<!-- Node0&#45;&gt;Node2 -->
<g id="edge2" class="edge"><title>Node0&#45;&gt;Node2</title>
<path fill="none" stroke="midnightblue" d="M19.3718,-473.934C17.9317,-506.108 18.1263,-608.244 74,-658 115.296,-694.774 179.482,-700.752 227.258,-699.048"/>
<polygon fill="midnightblue" stroke="midnightblue" points="227.673,-702.533 237.494,-698.558 227.338,-695.541 227.673,-702.533"/>
</g>
<!-- Node5 -->
<g id="node6" class="node"><title>Node5</title>
<g id="a_node6"><a xlink:href="class_linked_list.html#af508f8b52bbcf1485a1552ac8fc84b81" target="_top" xlink:title="LinkedList::insertAfter">
<polygon fill="white" stroke="black" points="236,-644.5 236,-663.5 347,-663.5 347,-644.5 236,-644.5"/>
<text text-anchor="middle" x="291.5" y="-651.5" font-family="Helvetica,sans-Serif" font-size="10.00">LinkedList::insertAfter</text>
</a>
</g>
</g>
<!-- Node0&#45;&gt;Node5 -->
<g id="edge5" class="edge"><title>Node0&#45;&gt;Node5</title>
<path fill="none" stroke="midnightblue" d="M19.9426,-473.571C20.3386,-501.969 25.7091,-586.239 74,-626 115.841,-660.451 178.496,-665.15 225.654,-662.586"/>
<polygon fill="midnightblue" stroke="midnightblue" points="226.024,-666.069 235.77,-661.913 225.56,-659.084 226.024,-666.069"/>
</g>
<!-- Node6 -->
<g id="node7" class="node"><title>Node6</title>
<g id="a_node7"><a xlink:href="class_linked_list.html#ad07d8659b87f77e9fb98a80eb71ed77a" target="_top" xlink:title="LinkedList::getLast">
<polygon fill="white" stroke="black" points="85.5,-568.5 85.5,-587.5 184.5,-587.5 184.5,-568.5 85.5,-568.5"/>
<text text-anchor="middle" x="135" y="-575.5" font-family="Helvetica,sans-Serif" font-size="10.00">LinkedList::getLast</text>
</a>
</g>
</g>
<!-- Node0&#45;&gt;Node6 -->
<g id="edge8" class="edge"><title>Node0&#45;&gt;Node6</title>
<path fill="none" stroke="midnightblue" d="M23.3369,-473.526C30.1298,-491.624 47.2258,-531.198 74,-554 78.651,-557.961 84.0381,-561.323 89.6377,-564.161"/>
<polygon fill="midnightblue" stroke="midnightblue" points="88.6146,-567.539 99.1696,-568.457 91.4907,-561.157 88.6146,-567.539"/>
</g>
<!-- Node7 -->
<g id="node8" class="node"><title>Node7</title>
<g id="a_node8"><a xlink:href="class_linked_list.html#a1cba1fc059374f4d263bf5bece9fa136" target="_top" xlink:title="LinkedList::getHead">
<polygon fill="white" stroke="black" points="83.5,-76.5 83.5,-95.5 186.5,-95.5 186.5,-76.5 83.5,-76.5"/>
<text text-anchor="middle" x="135" y="-83.5" font-family="Helvetica,sans-Serif" font-size="10.00">LinkedList::getHead</text>
</a>
</g>
</g>
<!-- Node0&#45;&gt;Node7 -->
<g id="edge10" class="edge"><title>Node0&#45;&gt;Node7</title>
<path fill="none" stroke="midnightblue" d="M20.2155,-454.214C21.529,-402.941 29.9426,-165.515 74,-110 76.903,-106.342 80.4483,-103.239 84.3502,-100.607"/>
<polygon fill="midnightblue" stroke="midnightblue" points="86.3363,-103.507 93.3509,-95.5664 82.9157,-97.3992 86.3363,-103.507"/>
</g>
<!-- Node8 -->
<g id="node9" class="node"><title>Node8</title>
<g id="a_node9"><a xlink:href="class_linked_list.html#a895ad950cc619c9cf72273e5e59a100f" target="_top" xlink:title="LinkedList::insertBefore">
<polygon fill="white" stroke="black" points="232,-606.5 232,-625.5 351,-625.5 351,-606.5 232,-606.5"/>
<text text-anchor="middle" x="291.5" y="-613.5" font-family="Helvetica,sans-Serif" font-size="10.00">LinkedList::insertBefore</text>
</a>
</g>
</g>
<!-- Node0&#45;&gt;Node8 -->
<g id="edge11" class="edge"><title>Node0&#45;&gt;Node8</title>
<path fill="none" stroke="midnightblue" d="M20.6499,-473.748C22.9051,-498.963 32.7104,-566.493 74,-597 118.246,-629.691 182.319,-631.308 229.283,-626.642"/>
<polygon fill="midnightblue" stroke="midnightblue" points="229.779,-630.108 239.33,-625.523 229.004,-623.151 229.779,-630.108"/>
</g>
<!-- Node9 -->
<g id="node10" class="node"><title>Node9</title>
<g id="a_node10"><a xlink:href="class_linked_list.html#ac96230938fd74a4efeb4efe8c995ee53" target="_top" xlink:title="LinkedList::printList">
<polygon fill="white" stroke="black" points="241,-150.5 241,-169.5 342,-169.5 342,-150.5 241,-150.5"/>
<text text-anchor="middle" x="291.5" y="-157.5" font-family="Helvetica,sans-Serif" font-size="10.00">LinkedList::printList</text>
</a>
</g>
</g>
<!-- Node0&#45;&gt;Node9 -->
<g id="edge14" class="edge"><title>Node0&#45;&gt;Node9</title>
<path fill="none" stroke="midnightblue" d="M20.3927,-454.377C22.4259,-409.657 33.2863,-222.723 74,-185 115.458,-146.587 182.246,-144.49 230.689,-149.407"/>
<polygon fill="midnightblue" stroke="midnightblue" points="230.4,-152.897 240.732,-150.552 231.193,-145.942 230.4,-152.897"/>
</g>
<!-- Node10 -->
<g id="node11" class="node"><title>Node10</title>
<g id="a_node11"><a xlink:href="class_node.html#aca98907146d5d0687f48bf8be9df9b7d" target="_top" xlink:title="Node::getData">
<polygon fill="white" stroke="black" points="387,-264.5 387,-283.5 466,-283.5 466,-264.5 387,-264.5"/>
<text text-anchor="middle" x="426.5" y="-271.5" font-family="Helvetica,sans-Serif" font-size="10.00">Node::getData</text>
</a>
</g>
</g>
<!-- Node0&#45;&gt;Node10 -->
<g id="edge28" class="edge"><title>Node0&#45;&gt;Node10</title>
<path fill="none" stroke="midnightblue" d="M20.0467,-454.182C20.5057,-404.847 25.2906,-184.731 74,-143 120.747,-102.95 297.891,-109.876 351,-141 393.096,-165.67 413.198,-223.784 421.152,-254.378"/>
<polygon fill="midnightblue" stroke="midnightblue" points="417.798,-255.396 423.552,-264.292 424.601,-253.749 417.798,-255.396"/>
</g>
<!-- Node11 -->
<g id="node12" class="node"><title>Node11</title>
<g id="a_node12"><a xlink:href="class_linked_list.html#af8ccdfe634eed9feae0c641766e2e867" target="_top" xlink:title="LinkedList::deleteBeg">
<polygon fill="white" stroke="black" points="236.5,-834.5 236.5,-853.5 346.5,-853.5 346.5,-834.5 236.5,-834.5"/>
<text text-anchor="middle" x="291.5" y="-841.5" font-family="Helvetica,sans-Serif" font-size="10.00">LinkedList::deleteBeg</text>
</a>
</g>
</g>
<!-- Node0&#45;&gt;Node11 -->
<g id="edge17" class="edge"><title>Node0&#45;&gt;Node11</title>
<path fill="none" stroke="midnightblue" d="M20.4936,-473.777C23.0173,-520.124 35.8797,-717.348 74,-763 95.9599,-789.299 184.94,-816.55 241.768,-831.784"/>
<polygon fill="midnightblue" stroke="midnightblue" points="241.072,-835.22 251.635,-834.395 242.863,-828.453 241.072,-835.22"/>
</g>
<!-- Node12 -->
<g id="node13" class="node"><title>Node12</title>
<g id="a_node13"><a xlink:href="class_linked_list.html#ab624ff78c70aaa517a3a98a4e7fec288" target="_top" xlink:title="LinkedList::deleteEnd">
<polygon fill="white" stroke="black" points="236.5,-758.5 236.5,-777.5 346.5,-777.5 346.5,-758.5 236.5,-758.5"/>
<text text-anchor="middle" x="291.5" y="-765.5" font-family="Helvetica,sans-Serif" font-size="10.00">LinkedList::deleteEnd</text>
</a>
</g>
</g>
<!-- Node0&#45;&gt;Node12 -->
<g id="edge20" class="edge"><title>Node0&#45;&gt;Node12</title>
<path fill="none" stroke="midnightblue" d="M20.5767,-473.584C23.3569,-516.483 36.8028,-690.369 74,-727 113.57,-765.967 177.884,-773.924 226.153,-773.51"/>
<polygon fill="midnightblue" stroke="midnightblue" points="226.27,-777.009 236.195,-773.303 226.125,-770.01 226.27,-777.009"/>
</g>
<!-- Node13 -->
<g id="node14" class="node"><title>Node13</title>
<g id="a_node14"><a xlink:href="class_linked_list.html#a9a53a4d26d1c757f3d526db3fa43c2f8" target="_top" xlink:title="LinkedList::deleteNode">
<polygon fill="white" stroke="black" points="233.5,-720.5 233.5,-739.5 349.5,-739.5 349.5,-720.5 233.5,-720.5"/>
<text text-anchor="middle" x="291.5" y="-727.5" font-family="Helvetica,sans-Serif" font-size="10.00">LinkedList::deleteNode</text>
</a>
</g>
</g>
<!-- Node0&#45;&gt;Node13 -->
<g id="edge23" class="edge"><title>Node0&#45;&gt;Node13</title>
<path fill="none" stroke="midnightblue" d="M20.8919,-473.623C24.739,-512.982 41.2211,-661.094 74,-692 113.319,-729.072 175.385,-736.758 223.001,-736.225"/>
<polygon fill="midnightblue" stroke="midnightblue" points="223.32,-739.718 233.234,-735.983 223.155,-732.72 223.32,-739.718"/>
</g>
<!-- Node14 -->
<g id="node15" class="node"><title>Node14</title>
<g id="a_node15"><a xlink:href="class_linked_list.html#a1a5c8f3b415fa55f7e876cf4a01f3380" target="_top" xlink:title="LinkedList::isNotEmpty">
<polygon fill="white" stroke="black" points="76,-38.5 76,-57.5 194,-57.5 194,-38.5 76,-38.5"/>
<text text-anchor="middle" x="135" y="-45.5" font-family="Helvetica,sans-Serif" font-size="10.00">LinkedList::isNotEmpty</text>
</a>
</g>
</g>
<!-- Node0&#45;&gt;Node14 -->
<g id="edge26" class="edge"><title>Node0&#45;&gt;Node14</title>
<path fill="none" stroke="midnightblue" d="M19.9639,-454.441C19.9485,-399.885 22.4888,-128.199 74,-67 75.0114,-65.7983 76.0985,-64.6717 77.2494,-63.6155"/>
<polygon fill="midnightblue" stroke="midnightblue" points="79.5452,-66.2769 85.6495,-57.6173 75.4773,-60.5802 79.5452,-66.2769"/>
</g>
<!-- Node15 -->
<g id="node16" class="node"><title>Node15</title>
<g id="a_node16"><a xlink:href="class_linked_list.html#a744fc291de7eff0b934e7b594449fa10" target="_top" xlink:title="LinkedList::getFirst">
<polygon fill="white" stroke="black" points="85,-0.5 85,-19.5 185,-19.5 185,-0.5 85,-0.5"/>
<text text-anchor="middle" x="135" y="-7.5" font-family="Helvetica,sans-Serif" font-size="10.00">LinkedList::getFirst</text>
</a>
</g>
</g>
<!-- Node0&#45;&gt;Node15 -->
<g id="edge27" class="edge"><title>Node0&#45;&gt;Node15</title>
<path fill="none" stroke="midnightblue" d="M19.8363,-454.298C19.0539,-396.386 17.7928,-96.5757 74,-29 75.0044,-27.7924 76.0852,-26.6606 77.2306,-25.5997"/>
<polygon fill="midnightblue" stroke="midnightblue" points="79.528,-28.2587 85.604,-19.5793 75.4416,-22.5753 79.528,-28.2587"/>
</g>
<!-- Node16 -->
<g id="node17" class="node"><title>Node16</title>
<g id="a_node17"><a xlink:href="class_linked_list.html#ac8d24166208694f4fe3cc982307b03fb" target="_top" xlink:title="LinkedList::getSize">
<polygon fill="white" stroke="black" points="85,-492.5 85,-511.5 185,-511.5 185,-492.5 85,-492.5"/>
<text text-anchor="middle" x="135" y="-499.5" font-family="Helvetica,sans-Serif" font-size="10.00">LinkedList::getSize</text>
</a>
</g>
</g>
<!-- Node0&#45;&gt;Node16 -->
<g id="edge29" class="edge"><title>Node0&#45;&gt;Node16</title>
<path fill="none" stroke="midnightblue" d="M38.4446,-470.652C48.8562,-474.366 62.1232,-479.031 74,-483 80.1888,-485.068 86.7552,-487.205 93.1863,-489.267"/>
<polygon fill="midnightblue" stroke="midnightblue" points="92.5168,-492.726 103.107,-492.423 94.6391,-486.056 92.5168,-492.726"/>
</g>
<!-- Node17 -->
<g id="node18" class="node"><title>Node17</title>
<g id="a_node18"><a xlink:href="class_linked_list.html#a2866982bfe5f87a2a265d1e2ec3e43ed" target="_top" xlink:title="LinkedList::getElement">
<polygon fill="white" stroke="black" points="233.5,-264.5 233.5,-283.5 349.5,-283.5 349.5,-264.5 233.5,-264.5"/>
<text text-anchor="middle" x="291.5" y="-271.5" font-family="Helvetica,sans-Serif" font-size="10.00">LinkedList::getElement</text>
</a>
</g>
</g>
<!-- Node0&#45;&gt;Node17 -->
<g id="edge31" class="edge"><title>Node0&#45;&gt;Node17</title>
<path fill="none" stroke="midnightblue" d="M21.4433,-454.42C25.4192,-431.395 38.6778,-372.522 74,-341 115.297,-304.146 176.584,-287.564 223.421,-280.103"/>
<polygon fill="midnightblue" stroke="midnightblue" points="224.109,-283.539 233.484,-278.603 223.077,-276.615 224.109,-283.539"/>
</g>
<!-- Node18 -->
<g id="node19" class="node"><title>Node18</title>
<g id="a_node19"><a xlink:href="class_linked_list.html#a8b00d7145aa7ee83ba2e49623285e371" target="_top" xlink:title="LinkedList::deleteAll">
<polygon fill="white" stroke="black" points="239.5,-530.5 239.5,-549.5 343.5,-549.5 343.5,-530.5 239.5,-530.5"/>
<text text-anchor="middle" x="291.5" y="-537.5" font-family="Helvetica,sans-Serif" font-size="10.00">LinkedList::deleteAll</text>
</a>
</g>
</g>
<!-- Node0&#45;&gt;Node18 -->
<g id="edge34" class="edge"><title>Node0&#45;&gt;Node18</title>
<path fill="none" stroke="midnightblue" d="M25.8994,-473.711C34.5791,-487.012 52.1512,-510.446 74,-521 122.383,-544.37 183.932,-547.619 229.028,-545.901"/>
<polygon fill="midnightblue" stroke="midnightblue" points="229.429,-549.386 239.252,-545.417 229.098,-542.394 229.429,-549.386"/>
</g>
<!-- Node19 -->
<g id="node20" class="node"><title>Node19</title>
<g id="a_node20"><a xlink:href="class_linked_list.html#af4b27646ebfb44d2fd0625b8ad1fb136" target="_top" xlink:title="LinkedList::getSizeR">
<polygon fill="white" stroke="black" points="81.5,-454.5 81.5,-473.5 188.5,-473.5 188.5,-454.5 81.5,-454.5"/>
<text text-anchor="middle" x="135" y="-461.5" font-family="Helvetica,sans-Serif" font-size="10.00">LinkedList::getSizeR</text>
</a>
</g>
</g>
<!-- Node0&#45;&gt;Node19 -->
<g id="edge38" class="edge"><title>Node0&#45;&gt;Node19</title>
<path fill="none" stroke="midnightblue" d="M38.0636,-464C47.1868,-464 58.8591,-464 70.8987,-464"/>
<polygon fill="midnightblue" stroke="midnightblue" points="71.0505,-467.5 81.0504,-464 71.0504,-460.5 71.0505,-467.5"/>
</g>
<!-- Node20 -->
<g id="node21" class="node"><title>Node20</title>
<g id="a_node21"><a xlink:href="class_linked_list.html#a2d03b30bf762af404a7a687aceff7123" target="_top" xlink:title="LinkedList::printListR">
<polygon fill="white" stroke="black" points="237.5,-226.5 237.5,-245.5 345.5,-245.5 345.5,-226.5 237.5,-226.5"/>
<text text-anchor="middle" x="291.5" y="-233.5" font-family="Helvetica,sans-Serif" font-size="10.00">LinkedList::printListR</text>
</a>
</g>
</g>
<!-- Node0&#45;&gt;Node20 -->
<g id="edge40" class="edge"><title>Node0&#45;&gt;Node20</title>
<path fill="none" stroke="midnightblue" d="M19.6664,-454.291C19.1839,-423.746 22.1058,-328.804 74,-281 115.037,-243.198 179.258,-233.814 227.112,-232.765"/>
<polygon fill="midnightblue" stroke="midnightblue" points="227.403,-236.262 237.367,-232.661 227.331,-229.263 227.403,-236.262"/>
</g>
<!-- Node21 -->
<g id="node22" class="node"><title>Node21</title>
<g id="a_node22"><a xlink:href="class_linked_list.html#ac2fac6f86f1891576b57c2866ff77803" target="_top" xlink:title="LinkedList::contains">
<polygon fill="white" stroke="black" points="239.5,-188.5 239.5,-207.5 343.5,-207.5 343.5,-188.5 239.5,-188.5"/>
<text text-anchor="middle" x="291.5" y="-195.5" font-family="Helvetica,sans-Serif" font-size="10.00">LinkedList::contains</text>
</a>
</g>
</g>
<!-- Node0&#45;&gt;Node21 -->
<g id="edge43" class="edge"><title>Node0&#45;&gt;Node21</title>
<path fill="none" stroke="midnightblue" d="M20.8049,-454.375C24.358,-414.309 39.9926,-261.388 74,-230 115.315,-191.867 181.203,-187.126 229.453,-189.915"/>
<polygon fill="midnightblue" stroke="midnightblue" points="229.246,-193.409 239.466,-190.615 229.735,-186.426 229.246,-193.409"/>
</g>
<!-- Node22 -->
<g id="node23" class="node"><title>Node22</title>
<g id="a_node23"><a xlink:href="class_linked_list.html#a67c86ff482738c1ab36bb8c764a7f3f7" target="_top" xlink:title="LinkedList::containsR">
<polygon fill="white" stroke="black" points="236.5,-302.5 236.5,-321.5 346.5,-321.5 346.5,-302.5 236.5,-302.5"/>
<text text-anchor="middle" x="291.5" y="-309.5" font-family="Helvetica,sans-Serif" font-size="10.00">LinkedList::containsR</text>
</a>
</g>
</g>
<!-- Node0&#45;&gt;Node22 -->
<g id="edge46" class="edge"><title>Node0&#45;&gt;Node22</title>
<path fill="none" stroke="midnightblue" d="M27.1189,-454.428C36.6634,-442.129 54.6596,-420.731 74,-407 129.191,-367.817 203.11,-339.696 248.731,-324.643"/>
<polygon fill="midnightblue" stroke="midnightblue" points="249.864,-327.955 258.297,-321.541 247.705,-321.296 249.864,-327.955"/>
</g>
<!-- Node23 -->
<g id="node24" class="node"><title>Node23</title>
<g id="a_node24"><a xlink:href="class_linked_list.html#a04e277f98f8e6e5426f19ad780915e00" target="_top" xlink:title="LinkedList::insertionSort">
<polygon fill="white" stroke="black" points="74,-416.5 74,-435.5 196,-435.5 196,-416.5 74,-416.5"/>
<text text-anchor="middle" x="135" y="-423.5" font-family="Helvetica,sans-Serif" font-size="10.00">LinkedList::insertionSort</text>
</a>
</g>
</g>
<!-- Node0&#45;&gt;Node23 -->
<g id="edge49" class="edge"><title>Node0&#45;&gt;Node23</title>
<path fill="none" stroke="midnightblue" d="M38.4446,-457.348C48.8562,-453.634 62.1232,-448.969 74,-445 80.1888,-442.932 86.7552,-440.795 93.1863,-438.733"/>
<polygon fill="midnightblue" stroke="midnightblue" points="94.6391,-441.944 103.107,-435.577 92.5168,-435.274 94.6391,-441.944"/>
</g>
<!-- Node3 -->
<g id="node4" class="node"><title>Node3</title>
<g id="a_node4"><a xlink:href="class_node.html#ae36639ff267d63e058ce309fde5a9913" target="_top" xlink:title="Node::getNext">
<polygon fill="white" stroke="black" points="387,-492.5 387,-511.5 466,-511.5 466,-492.5 387,-492.5"/>
<text text-anchor="middle" x="426.5" y="-499.5" font-family="Helvetica,sans-Serif" font-size="10.00">Node::getNext</text>
</a>
</g>
</g>
<!-- Node2&#45;&gt;Node3 -->
<g id="edge3" class="edge"><title>Node2&#45;&gt;Node3</title>
<path fill="none" stroke="midnightblue" d="M336.314,-682.418C341.658,-679.961 346.73,-676.875 351,-673 396.655,-631.565 415.609,-557.177 422.325,-521.771"/>
<polygon fill="midnightblue" stroke="midnightblue" points="425.804,-522.193 424.094,-511.737 418.911,-520.978 425.804,-522.193"/>
</g>
<!-- Node4 -->
<g id="node5" class="node"><title>Node4</title>
<g id="a_node5"><a xlink:href="class_node.html#a89b12aca90acdf6a8a547cbdab9b80a5" target="_top" xlink:title="Node::setNext">
<polygon fill="white" stroke="black" points="387,-682.5 387,-701.5 466,-701.5 466,-682.5 387,-682.5"/>
<text text-anchor="middle" x="426.5" y="-689.5" font-family="Helvetica,sans-Serif" font-size="10.00">Node::setNext</text>
</a>
</g>
</g>
<!-- Node2&#45;&gt;Node4 -->
<g id="edge4" class="edge"><title>Node2&#45;&gt;Node4</title>
<path fill="none" stroke="midnightblue" d="M345.83,-692C356.021,-692 366.642,-692 376.683,-692"/>
<polygon fill="midnightblue" stroke="midnightblue" points="376.894,-695.5 386.894,-692 376.894,-688.5 376.894,-695.5"/>
</g>
<!-- Node5&#45;&gt;Node3 -->
<g id="edge7" class="edge"><title>Node5&#45;&gt;Node3</title>
<path fill="none" stroke="midnightblue" d="M335.061,-644.405C340.784,-641.944 346.294,-638.861 351,-635 388.192,-604.484 410.129,-550.247 419.723,-521.362"/>
<polygon fill="midnightblue" stroke="midnightblue" points="423.121,-522.225 422.802,-511.635 416.447,-520.112 423.121,-522.225"/>
</g>
<!-- Node5&#45;&gt;Node4 -->
<g id="edge6" class="edge"><title>Node5&#45;&gt;Node4</title>
<path fill="none" stroke="midnightblue" d="M326.062,-663.589C343.073,-668.449 363.932,-674.409 382.145,-679.613"/>
<polygon fill="midnightblue" stroke="midnightblue" points="381.372,-683.032 391.949,-682.414 383.296,-676.301 381.372,-683.032"/>
</g>
<!-- Node6&#45;&gt;Node3 -->
<g id="edge9" class="edge"><title>Node6&#45;&gt;Node3</title>
<path fill="none" stroke="midnightblue" d="M184.71,-581.285C229.464,-582.564 296.862,-580.037 351,-559 373.587,-550.223 395.086,-532.393 409.131,-518.998"/>
<polygon fill="midnightblue" stroke="midnightblue" points="411.838,-521.244 416.491,-511.726 406.918,-516.265 411.838,-521.244"/>
</g>
<!-- Node8&#45;&gt;Node3 -->
<g id="edge12" class="edge"><title>Node8&#45;&gt;Node3</title>
<path fill="none" stroke="midnightblue" d="M323.749,-606.44C333.022,-602.768 342.865,-597.985 351,-592 378.08,-572.075 401.324,-540.223 414.348,-520.241"/>
<polygon fill="midnightblue" stroke="midnightblue" points="417.342,-522.055 419.741,-511.735 411.43,-518.306 417.342,-522.055"/>
</g>
<!-- Node8&#45;&gt;Node4 -->
<g id="edge13" class="edge"><title>Node8&#45;&gt;Node4</title>
<path fill="none" stroke="midnightblue" d="M328.554,-625.584C336.164,-628.188 344.004,-631.326 351,-635 371.972,-646.013 393.163,-662.913 407.553,-675.454"/>
<polygon fill="midnightblue" stroke="midnightblue" points="405.393,-678.217 415.188,-682.257 410.05,-672.991 405.393,-678.217"/>
</g>
<!-- Node9&#45;&gt;Node3 -->
<g id="edge16" class="edge"><title>Node9&#45;&gt;Node3</title>
<path fill="none" stroke="midnightblue" d="M338.457,-169.611C343.14,-172.065 347.465,-175.142 351,-179 371.994,-201.913 410.6,-416.116 422.15,-482.489"/>
<polygon fill="midnightblue" stroke="midnightblue" points="418.721,-483.201 423.874,-492.458 425.619,-482.008 418.721,-483.201"/>
</g>
<!-- Node9&#45;&gt;Node10 -->
<g id="edge15" class="edge"><title>Node9&#45;&gt;Node10</title>
<path fill="none" stroke="midnightblue" d="M332.712,-169.544C339.142,-172.039 345.485,-175.147 351,-179 380.053,-199.301 403.231,-234.234 415.618,-255.61"/>
<polygon fill="midnightblue" stroke="midnightblue" points="412.589,-257.365 420.533,-264.376 418.695,-253.942 412.589,-257.365"/>
</g>
<!-- Node11&#45;&gt;Node3 -->
<g id="edge18" class="edge"><title>Node11&#45;&gt;Node3</title>
<path fill="none" stroke="midnightblue" d="M306.196,-834.238C319.59,-823.973 339.588,-806.61 351,-787 364.682,-763.489 407.079,-582.207 421.012,-521.635"/>
<polygon fill="midnightblue" stroke="midnightblue" points="424.445,-522.325 423.269,-511.795 417.622,-520.76 424.445,-522.325"/>
</g>
<!-- Node11&#45;&gt;Node4 -->
<g id="edge19" class="edge"><title>Node11&#45;&gt;Node4</title>
<path fill="none" stroke="midnightblue" d="M326.516,-834.383C335.15,-830.833 343.963,-826.128 351,-820 385.748,-789.737 408.356,-739.117 418.791,-711.473"/>
<polygon fill="midnightblue" stroke="midnightblue" points="422.188,-712.374 422.304,-701.779 415.606,-709.989 422.188,-712.374"/>
</g>
<!-- Node12&#45;&gt;Node3 -->
<g id="edge21" class="edge"><title>Node12&#45;&gt;Node3</title>
<path fill="none" stroke="midnightblue" d="M337.63,-758.448C342.576,-755.986 347.19,-752.891 351,-749 383.478,-715.83 412.206,-574.43 421.962,-521.821"/>
<polygon fill="midnightblue" stroke="midnightblue" points="425.448,-522.219 423.798,-511.753 418.561,-520.963 425.448,-522.219"/>
</g>
<!-- Node12&#45;&gt;Node4 -->
<g id="edge22" class="edge"><title>Node12&#45;&gt;Node4</title>
<path fill="none" stroke="midnightblue" d="M328.554,-758.416C336.164,-755.812 344.004,-752.674 351,-749 371.972,-737.987 393.163,-721.087 407.553,-708.546"/>
<polygon fill="midnightblue" stroke="midnightblue" points="410.05,-711.009 415.188,-701.743 405.393,-705.783 410.05,-711.009"/>
</g>
<!-- Node13&#45;&gt;Node3 -->
<g id="edge24" class="edge"><title>Node13&#45;&gt;Node3</title>
<path fill="none" stroke="midnightblue" d="M337.154,-720.406C342.24,-717.952 347.018,-714.87 351,-711 405.284,-658.235 420.128,-563.315 424.095,-522.057"/>
<polygon fill="midnightblue" stroke="midnightblue" points="427.597,-522.182 424.949,-511.923 420.622,-521.594 427.597,-522.182"/>
</g>
<!-- Node13&#45;&gt;Node4 -->
<g id="edge25" class="edge"><title>Node13&#45;&gt;Node4</title>
<path fill="none" stroke="midnightblue" d="M326.062,-720.411C343.073,-715.551 363.932,-709.591 382.145,-704.387"/>
<polygon fill="midnightblue" stroke="midnightblue" points="383.296,-707.699 391.949,-701.586 381.372,-700.968 383.296,-707.699"/>
</g>
<!-- Node16&#45;&gt;Node3 -->
<g id="edge30" class="edge"><title>Node16&#45;&gt;Node3</title>
<path fill="none" stroke="midnightblue" d="M185.11,-502C238.496,-502 323.3,-502 376.603,-502"/>
<polygon fill="midnightblue" stroke="midnightblue" points="376.825,-505.5 386.825,-502 376.825,-498.5 376.825,-505.5"/>
</g>
<!-- Node17&#45;&gt;Node3 -->
<g id="edge32" class="edge"><title>Node17&#45;&gt;Node3</title>
<path fill="none" stroke="midnightblue" d="M337.154,-283.594C342.24,-286.048 347.018,-289.13 351,-293 405.284,-345.765 420.128,-440.685 424.095,-481.943"/>
<polygon fill="midnightblue" stroke="midnightblue" points="420.622,-482.406 424.949,-492.077 427.597,-481.818 420.622,-482.406"/>
</g>
<!-- Node17&#45;&gt;Node10 -->
<g id="edge33" class="edge"><title>Node17&#45;&gt;Node10</title>
<path fill="none" stroke="midnightblue" d="M349.676,-274C358.683,-274 367.924,-274 376.718,-274"/>
<polygon fill="midnightblue" stroke="midnightblue" points="376.796,-277.5 386.796,-274 376.796,-270.5 376.796,-277.5"/>
</g>
<!-- Node18&#45;&gt;Node3 -->
<g id="edge36" class="edge"><title>Node18&#45;&gt;Node3</title>
<path fill="none" stroke="midnightblue" d="M326.062,-530.411C343.073,-525.551 363.932,-519.591 382.145,-514.387"/>
<polygon fill="midnightblue" stroke="midnightblue" points="383.296,-517.699 391.949,-511.586 381.372,-510.968 383.296,-517.699"/>
</g>
<!-- Node18&#45;&gt;Node4 -->
<g id="edge37" class="edge"><title>Node18&#45;&gt;Node4</title>
<path fill="none" stroke="midnightblue" d="M303.276,-549.688C315.344,-560.719 335.273,-579.486 351,-597 374.091,-622.714 398.343,-654.714 412.681,-674.236"/>
<polygon fill="midnightblue" stroke="midnightblue" points="409.984,-676.478 418.703,-682.497 415.641,-672.355 409.984,-676.478"/>
</g>
<!-- Node18&#45;&gt;Node10 -->
<g id="edge35" class="edge"><title>Node18&#45;&gt;Node10</title>
<path fill="none" stroke="midnightblue" d="M297.391,-530.217C316.987,-491.026 390.015,-344.97 416.136,-292.729"/>
<polygon fill="midnightblue" stroke="midnightblue" points="419.363,-294.101 420.705,-283.591 413.102,-290.97 419.363,-294.101"/>
</g>
<!-- Node19&#45;&gt;Node3 -->
<g id="edge39" class="edge"><title>Node19&#45;&gt;Node3</title>
<path fill="none" stroke="midnightblue" d="M188.762,-470.926C242.429,-477.97 324.9,-488.795 376.983,-495.632"/>
<polygon fill="midnightblue" stroke="midnightblue" points="376.606,-499.112 386.977,-496.943 377.517,-492.172 376.606,-499.112"/>
</g>
<!-- Node20&#45;&gt;Node3 -->
<g id="edge42" class="edge"><title>Node20&#45;&gt;Node3</title>
<path fill="none" stroke="midnightblue" d="M337.63,-245.552C342.576,-248.014 347.19,-251.109 351,-255 414.263,-319.612 424.078,-435.934 425.401,-482.22"/>
<polygon fill="midnightblue" stroke="midnightblue" points="421.905,-482.468 425.582,-492.405 428.904,-482.344 421.905,-482.468"/>
</g>
<!-- Node20&#45;&gt;Node10 -->
<g id="edge41" class="edge"><title>Node20&#45;&gt;Node10</title>
<path fill="none" stroke="midnightblue" d="M326.062,-245.589C343.073,-250.449 363.932,-256.409 382.145,-261.613"/>
<polygon fill="midnightblue" stroke="midnightblue" points="381.372,-265.032 391.949,-264.414 383.296,-258.301 381.372,-265.032"/>
</g>
<!-- Node21&#45;&gt;Node3 -->
<g id="edge45" class="edge"><title>Node21&#45;&gt;Node3</title>
<path fill="none" stroke="midnightblue" d="M338.06,-207.564C342.872,-210.024 347.336,-213.116 351,-217 388.011,-256.237 414.61,-424.31 422.828,-482.264"/>
<polygon fill="midnightblue" stroke="midnightblue" points="419.382,-482.892 424.224,-492.316 426.315,-481.929 419.382,-482.892"/>
</g>
<!-- Node21&#45;&gt;Node10 -->
<g id="edge44" class="edge"><title>Node21&#45;&gt;Node10</title>
<path fill="none" stroke="midnightblue" d="M328.554,-207.584C336.164,-210.188 344.004,-213.326 351,-217 371.972,-228.013 393.163,-244.913 407.553,-257.454"/>
<polygon fill="midnightblue" stroke="midnightblue" points="405.393,-260.217 415.188,-264.257 410.05,-254.991 405.393,-260.217"/>
</g>
<!-- Node22&#45;&gt;Node3 -->
<g id="edge48" class="edge"><title>Node22&#45;&gt;Node3</title>
<path fill="none" stroke="midnightblue" d="M304.25,-321.645C316.816,-332.346 336.843,-350.55 351,-369 379.731,-406.444 404.585,-456.259 417.022,-483.04"/>
<polygon fill="midnightblue" stroke="midnightblue" points="413.96,-484.762 421.298,-492.405 420.328,-481.854 413.96,-484.762"/>
</g>
<!-- Node22&#45;&gt;Node10 -->
<g id="edge47" class="edge"><title>Node22&#45;&gt;Node10</title>
<path fill="none" stroke="midnightblue" d="M326.062,-302.411C343.073,-297.551 363.932,-291.591 382.145,-286.387"/>
<polygon fill="midnightblue" stroke="midnightblue" points="383.296,-289.699 391.949,-283.586 381.372,-282.968 383.296,-289.699"/>
</g>
<!-- Node23&#45;&gt;Node3 -->
<g id="edge50" class="edge"><title>Node23&#45;&gt;Node3</title>
<path fill="none" stroke="midnightblue" d="M190.945,-435.561C234.749,-443.768 297.415,-456.821 351,-473 365.4,-477.348 380.959,-483.211 394.116,-488.529"/>
<polygon fill="midnightblue" stroke="midnightblue" points="393.07,-491.883 403.649,-492.454 395.735,-485.41 393.07,-491.883"/>
</g>
<!-- Node23&#45;&gt;Node4 -->
<g id="edge56" class="edge"><title>Node23&#45;&gt;Node4</title>
<path fill="none" stroke="midnightblue" d="M184.469,-435.519C188.849,-437.998 192.822,-441.106 196,-445 244.319,-504.205 175.205,-735.87 232,-787 271.307,-822.386 303.443,-810.142 351,-787 383.506,-771.182 406.028,-733.556 417.264,-710.688"/>
<polygon fill="midnightblue" stroke="midnightblue" points="420.438,-712.164 421.507,-701.623 414.098,-709.197 420.438,-712.164"/>
</g>
<!-- Node23&#45;&gt;Node10 -->
<g id="edge55" class="edge"><title>Node23&#45;&gt;Node10</title>
<path fill="none" stroke="midnightblue" d="M151.843,-416.467C178.019,-400.733 227.845,-370.868 232,-369 282.639,-346.237 301.782,-356.692 351,-331 371.999,-320.039 393.186,-303.132 407.569,-290.575"/>
<polygon fill="midnightblue" stroke="midnightblue" points="410.07,-293.033 415.198,-283.762 405.408,-287.812 410.07,-293.033"/>
</g>
<!-- Node24 -->
<g id="node25" class="node"><title>Node24</title>
<g id="a_node25"><a xlink:href="class_linked_list.html#ac517f07c7f197202fa085246fb3f07e8" target="_top" xlink:title="LinkedList::insertSorted">
<polygon fill="white" stroke="black" points="232,-378.5 232,-397.5 351,-397.5 351,-378.5 232,-378.5"/>
<text text-anchor="middle" x="291.5" y="-385.5" font-family="Helvetica,sans-Serif" font-size="10.00">LinkedList::insertSorted</text>
</a>
</g>
</g>
<!-- Node23&#45;&gt;Node24 -->
<g id="edge51" class="edge"><title>Node23&#45;&gt;Node24</title>
<path fill="none" stroke="midnightblue" d="M174.987,-416.411C195.283,-411.419 220.293,-405.268 241.846,-399.967"/>
<polygon fill="midnightblue" stroke="midnightblue" points="242.919,-403.307 251.793,-397.52 241.247,-396.51 242.919,-403.307"/>
</g>
<!-- Node24&#45;&gt;Node3 -->
<g id="edge54" class="edge"><title>Node24&#45;&gt;Node3</title>
<path fill="none" stroke="midnightblue" d="M323.749,-397.56C333.022,-401.232 342.865,-406.015 351,-412 378.08,-431.925 401.324,-463.777 414.348,-483.759"/>
<polygon fill="midnightblue" stroke="midnightblue" points="411.43,-485.694 419.741,-492.265 417.342,-481.945 411.43,-485.694"/>
</g>
<!-- Node24&#45;&gt;Node4 -->
<g id="edge52" class="edge"><title>Node24&#45;&gt;Node4</title>
<path fill="none" stroke="midnightblue" d="M296.769,-397.674C306.443,-419.604 330.768,-474.784 351,-521 375.151,-576.17 403.53,-641.428 417.248,-673"/>
<polygon fill="midnightblue" stroke="midnightblue" points="414.116,-674.576 421.311,-682.353 420.537,-671.786 414.116,-674.576"/>
</g>
<!-- Node24&#45;&gt;Node10 -->
<g id="edge53" class="edge"><title>Node24&#45;&gt;Node10</title>
<path fill="none" stroke="midnightblue" d="M323.749,-378.44C333.022,-374.768 342.865,-369.985 351,-364 378.08,-344.075 401.324,-312.223 414.348,-292.241"/>
<polygon fill="midnightblue" stroke="midnightblue" points="417.342,-294.055 419.741,-283.735 411.43,-290.306 417.342,-294.055"/>
</g>
</g>
</svg>
